<svg width="695" height="168" viewBox="0 0 695 168" fill="none" xmlns="http://www.w3.org/2000/svg">
<path d="M312.698 159.695H255.79V148.225L274.318 144.034V18.087L255.79 13.6755V2.20572H312.698V13.6755L294.17 18.087V144.034L312.698 148.225V159.695Z" fill="white"/>
<path d="M236.638 117.565C236.638 126.976 234.359 134.99 229.801 141.608C225.242 148.078 218.698 153.077 210.17 156.607C201.788 160.136 191.862 161.9 180.392 161.9C174.51 161.9 168.849 161.606 163.408 161.018C158.114 160.43 153.262 159.621 148.85 158.592C144.439 157.415 140.542 156.018 137.16 154.401V135.432C142.454 137.784 148.997 139.917 156.791 141.828C164.732 143.74 172.893 144.696 181.275 144.696C189.068 144.696 195.612 143.666 200.906 141.608C206.199 139.549 210.17 136.608 212.816 132.785C215.463 128.961 216.787 124.476 216.787 119.33C216.787 114.183 215.684 109.845 213.478 106.316C211.272 102.787 207.449 99.5518 202.008 96.6108C196.715 93.5228 189.289 90.2877 179.731 86.9056C172.966 84.4058 167.011 81.7589 161.864 78.965C156.865 76.024 152.674 72.7154 149.292 69.0392C145.909 65.363 143.336 61.1721 141.571 56.4666C139.954 51.761 139.145 46.3203 139.145 40.1442C139.145 31.7625 141.277 24.6306 145.542 18.7487C149.806 12.7197 155.688 8.08767 163.188 4.8526C170.834 1.61753 179.583 0 189.436 0C198.112 0 206.052 0.808765 213.258 2.42629C220.463 4.04383 227.007 6.17604 232.889 8.82291L226.713 25.807C221.272 23.4542 215.316 21.4691 208.846 19.8515C202.523 18.234 195.906 17.4252 188.995 17.4252C182.377 17.4252 176.863 18.3811 172.452 20.2927C168.04 22.2043 164.732 24.9247 162.526 28.4539C160.32 31.836 159.217 35.8063 159.217 40.3648C159.217 45.6585 160.32 50.07 162.526 53.5991C164.732 57.1283 168.334 60.2899 173.334 63.0838C178.334 65.8777 185.098 68.8922 193.627 72.1272C202.891 75.5094 210.684 79.1856 217.007 83.1559C223.477 86.9791 228.33 91.6112 231.565 97.0519C234.947 102.493 236.638 109.33 236.638 117.565Z" fill="white"/>
<path d="M75.4358 17.4252C67.0541 17.4252 59.4811 18.8957 52.7169 21.8367C45.9526 24.6306 40.2177 28.8215 35.5122 34.4093C30.8066 39.8501 27.204 46.5408 24.7041 54.4814C22.2043 62.275 20.9544 71.0979 20.9544 80.9501C20.9544 93.8904 22.9396 105.14 26.9099 114.698C31.0272 124.256 37.0562 131.608 44.9968 136.755C53.0845 141.902 63.1573 144.475 75.2153 144.475C82.1265 144.475 88.6702 143.887 94.8462 142.71C101.022 141.534 107.051 140.064 112.933 138.299V155.504C107.051 157.709 100.949 159.327 94.6257 160.356C88.4496 161.386 81.0237 161.9 72.3478 161.9C56.3195 161.9 42.9381 158.592 32.2036 151.975C21.4691 145.357 13.3814 135.946 7.94061 123.741C2.64687 111.536 0 97.199 0 80.7296C0 68.8187 1.61752 57.9371 4.85259 48.0848C8.2347 38.2326 13.0873 29.7038 19.4104 22.4984C25.8805 15.293 33.8211 9.77872 43.2322 5.95546C52.6433 1.98515 63.4514 0 75.6564 0C83.7441 0 91.5376 0.808765 99.0371 2.42629C106.537 4.04383 113.227 6.32308 119.109 9.26405L111.169 26.0276C106.316 23.8218 100.875 21.8367 94.8462 20.0721C88.9643 18.3075 82.4942 17.4252 75.4358 17.4252Z" fill="white"/>
<path d="M318.646 54.2526C318.646 51.9163 319.539 49.7862 321.326 47.8622C323.112 45.9382 325.243 44.9762 327.716 44.9762C330.19 44.9762 332.251 45.9382 333.901 47.8622C335.687 49.6488 336.58 51.7789 336.58 54.2526C336.58 56.7263 335.687 58.8565 333.901 60.643C332.251 62.2922 330.19 63.1167 327.716 63.1167C325.243 63.1167 323.112 62.2922 321.326 60.643C319.539 58.9939 318.646 56.8638 318.646 54.2526ZM318.646 111.973C318.646 109.499 319.539 107.369 321.326 105.582C323.112 103.796 325.243 102.902 327.716 102.902C330.053 102.902 332.114 103.796 333.901 105.582C335.687 107.369 336.58 109.499 336.58 111.973C336.58 114.446 335.756 116.508 334.107 118.157C332.458 119.806 330.327 120.631 327.716 120.631C325.243 120.631 323.112 119.806 321.326 118.157C319.539 116.508 318.646 114.446 318.646 111.973Z" fill="white"/>
<path d="M683.771 124.148C687.342 124.148 690.038 125.022 691.861 126.77C693.683 128.481 694.595 131.271 694.595 135.139V154.61H689.741V135.474C689.741 133.056 689.201 131.252 688.123 130.062C687.044 128.872 685.352 128.277 683.046 128.277C679.736 128.277 677.448 129.207 676.184 131.066C674.919 132.926 674.287 135.604 674.287 139.1V154.61H669.377V124.706H673.338L674.063 128.779H674.342C675.012 127.737 675.83 126.882 676.797 126.212C677.802 125.506 678.899 124.985 680.089 124.65C681.279 124.316 682.507 124.148 683.771 124.148Z" fill="white"/>
<path d="M661.596 139.602C661.596 142.094 661.261 144.307 660.591 146.241C659.959 148.138 659.029 149.756 657.802 151.095C656.612 152.434 655.142 153.457 653.394 154.164C651.683 154.833 649.768 155.168 647.648 155.168C645.677 155.168 643.854 154.833 642.18 154.164C640.507 153.457 639.056 152.434 637.829 151.095C636.601 149.756 635.634 148.138 634.927 146.241C634.258 144.307 633.923 142.094 633.923 139.602C633.923 136.292 634.481 133.503 635.597 131.234C636.713 128.928 638.312 127.18 640.395 125.989C642.478 124.762 644.951 124.148 647.815 124.148C650.53 124.148 652.911 124.762 654.956 125.989C657.039 127.18 658.657 128.928 659.81 131.234C661 133.503 661.596 136.292 661.596 139.602ZM639 139.602C639 141.946 639.298 143.991 639.893 145.739C640.525 147.45 641.492 148.771 642.794 149.701C644.096 150.63 645.751 151.095 647.759 151.095C649.768 151.095 651.423 150.63 652.725 149.701C654.027 148.771 654.975 147.45 655.57 145.739C656.202 143.991 656.519 141.946 656.519 139.602C656.519 137.222 656.202 135.195 655.57 133.521C654.938 131.847 653.971 130.564 652.669 129.672C651.404 128.742 649.749 128.277 647.704 128.277C644.654 128.277 642.441 129.281 641.064 131.289C639.688 133.298 639 136.069 639 139.602Z" fill="white"/>
<path d="M626.123 124.706V154.61H621.213V124.706H626.123ZM623.724 113.492C624.468 113.492 625.119 113.753 625.677 114.273C626.272 114.757 626.569 115.538 626.569 116.616C626.569 117.658 626.272 118.439 625.677 118.96C625.119 119.48 624.468 119.741 623.724 119.741C622.906 119.741 622.218 119.48 621.66 118.96C621.102 118.439 620.823 117.658 620.823 116.616C620.823 115.538 621.102 114.757 621.66 114.273C622.218 113.753 622.906 113.492 623.724 113.492Z" fill="white"/>
<path d="M611.041 151.151C611.785 151.151 612.547 151.095 613.328 150.984C614.109 150.835 614.742 150.686 615.225 150.537V154.275C614.704 154.536 613.96 154.74 612.993 154.889C612.026 155.075 611.097 155.168 610.204 155.168C608.642 155.168 607.191 154.908 605.852 154.387C604.55 153.829 603.49 152.881 602.672 151.542C601.854 150.203 601.445 148.324 601.445 145.907V128.5H597.205V126.157L601.5 124.204L603.453 117.844H606.354V124.706H615.002V128.5H606.354V145.795C606.354 147.618 606.782 148.975 607.637 149.868C608.53 150.723 609.665 151.151 611.041 151.151Z" fill="white"/>
<path d="M581.106 124.204C584.751 124.204 587.448 125.004 589.196 126.603C590.944 128.202 591.818 130.75 591.818 134.246V154.61H588.248L587.299 150.37H587.076C586.221 151.449 585.328 152.36 584.398 153.104C583.505 153.811 582.464 154.331 581.274 154.666C580.121 155.001 578.707 155.168 577.034 155.168C575.248 155.168 573.63 154.852 572.18 154.22C570.766 153.587 569.651 152.62 568.832 151.318C568.014 149.979 567.605 148.306 567.605 146.297C567.605 143.322 568.777 141.034 571.12 139.435C573.463 137.798 577.071 136.906 581.943 136.757L587.02 136.59V134.804C587.02 132.312 586.481 130.583 585.402 129.616C584.324 128.649 582.799 128.165 580.827 128.165C579.265 128.165 577.778 128.407 576.364 128.89C574.951 129.337 573.63 129.858 572.403 130.453L570.897 126.77C572.198 126.064 573.742 125.469 575.527 124.985C577.313 124.464 579.172 124.204 581.106 124.204ZM582.557 140.16C578.838 140.309 576.253 140.904 574.802 141.946C573.389 142.987 572.682 144.456 572.682 146.353C572.682 148.027 573.184 149.254 574.188 150.035C575.23 150.816 576.55 151.207 578.149 151.207C580.679 151.207 582.78 150.519 584.454 149.143C586.128 147.729 586.964 145.572 586.964 142.671V139.993L582.557 140.16Z" fill="white"/>
<path d="M546.057 124.148C548.028 124.148 549.795 124.52 551.357 125.264C552.956 126.008 554.314 127.142 555.43 128.667H555.709L556.378 124.706H560.283V155.112C560.283 157.939 559.8 160.301 558.833 162.198C557.866 164.132 556.397 165.582 554.425 166.549C552.454 167.516 549.943 168 546.894 168C544.736 168 542.746 167.833 540.924 167.498C539.139 167.2 537.539 166.735 536.126 166.103V161.584C537.093 162.068 538.153 162.477 539.306 162.811C540.459 163.183 541.705 163.462 543.044 163.648C544.383 163.834 545.759 163.927 547.172 163.927C549.739 163.927 551.747 163.165 553.198 161.64C554.686 160.152 555.43 158.106 555.43 155.503V154.331C555.43 153.885 555.448 153.253 555.485 152.434C555.523 151.579 555.56 150.984 555.597 150.649H555.374C554.332 152.174 553.031 153.308 551.468 154.052C549.943 154.796 548.158 155.168 546.112 155.168C542.244 155.168 539.213 153.81 537.018 151.095C534.861 148.38 533.783 144.586 533.783 139.714C533.783 136.515 534.266 133.763 535.233 131.457C536.237 129.114 537.651 127.31 539.473 126.045C541.296 124.781 543.49 124.148 546.057 124.148ZM546.726 128.277C545.052 128.277 543.62 128.723 542.43 129.616C541.277 130.508 540.385 131.81 539.752 133.521C539.157 135.232 538.86 137.315 538.86 139.77C538.86 143.452 539.529 146.279 540.868 148.25C542.244 150.184 544.234 151.151 546.838 151.151C548.363 151.151 549.664 150.965 550.743 150.593C551.822 150.184 552.714 149.57 553.421 148.752C554.128 147.897 554.648 146.818 554.983 145.516C555.318 144.214 555.485 142.671 555.485 140.886V139.714C555.485 136.999 555.169 134.804 554.537 133.131C553.942 131.457 552.993 130.229 551.692 129.448C550.39 128.667 548.735 128.277 546.726 128.277Z" fill="white"/>
<path d="M525.982 124.706V154.61H521.073V124.706H525.982ZM523.583 113.492C524.327 113.492 524.978 113.753 525.536 114.273C526.131 114.757 526.429 115.538 526.429 116.616C526.429 117.658 526.131 118.439 525.536 118.96C524.978 119.48 524.327 119.741 523.583 119.741C522.765 119.741 522.077 119.48 521.519 118.96C520.961 118.439 520.682 117.658 520.682 116.616C520.682 115.538 520.961 114.757 521.519 114.273C522.077 113.753 522.765 113.492 523.583 113.492Z" fill="white"/>
<path d="M510.9 151.151C511.644 151.151 512.407 151.095 513.188 150.984C513.969 150.835 514.601 150.686 515.085 150.537V154.275C514.564 154.536 513.82 154.74 512.853 154.889C511.886 155.075 510.956 155.168 510.064 155.168C508.501 155.168 507.051 154.908 505.712 154.387C504.41 153.829 503.35 152.881 502.532 151.542C501.713 150.203 501.304 148.324 501.304 145.907V128.5H497.064V126.157L501.36 124.204L503.313 117.844H506.214V124.706H514.862V128.5H506.214V145.795C506.214 147.618 506.642 148.975 507.497 149.868C508.39 150.723 509.524 151.151 510.9 151.151Z" fill="white"/>
<path d="M493.688 146.353C493.688 148.287 493.205 149.905 492.237 151.207C491.27 152.509 489.894 153.494 488.109 154.164C486.324 154.833 484.204 155.168 481.749 155.168C479.666 155.168 477.862 155.001 476.337 154.666C474.849 154.331 473.529 153.866 472.376 153.271V148.808C473.566 149.403 474.998 149.961 476.672 150.482C478.383 150.965 480.112 151.207 481.86 151.207C484.352 151.207 486.156 150.816 487.272 150.035C488.388 149.217 488.946 148.138 488.946 146.799C488.946 146.056 488.741 145.386 488.332 144.791C487.923 144.196 487.179 143.601 486.1 143.006C485.059 142.41 483.553 141.741 481.581 140.997C479.647 140.253 477.992 139.509 476.616 138.765C475.24 138.022 474.18 137.129 473.436 136.087C472.692 135.046 472.32 133.707 472.32 132.071C472.32 129.541 473.343 127.589 475.389 126.212C477.471 124.836 480.187 124.148 483.534 124.148C485.357 124.148 487.049 124.334 488.611 124.706C490.21 125.041 491.698 125.524 493.074 126.157L491.401 130.062C490.582 129.69 489.708 129.374 488.778 129.114C487.886 128.816 486.975 128.593 486.045 128.444C485.115 128.258 484.166 128.165 483.199 128.165C481.191 128.165 479.647 128.5 478.569 129.169C477.527 129.802 477.006 130.676 477.006 131.792C477.006 132.61 477.248 133.317 477.732 133.912C478.215 134.47 479.015 135.027 480.131 135.585C481.284 136.106 482.809 136.738 484.706 137.482C486.603 138.189 488.221 138.914 489.559 139.658C490.898 140.402 491.921 141.313 492.628 142.392C493.335 143.433 493.688 144.754 493.688 146.353Z" fill="white"/>
<path d="M454.274 124.148C456.841 124.148 459.035 124.706 460.858 125.822C462.717 126.938 464.131 128.518 465.098 130.564C466.102 132.573 466.604 134.934 466.604 137.65V140.607H446.129C446.203 143.991 447.059 146.576 448.695 148.362C450.369 150.11 452.693 150.984 455.669 150.984C457.566 150.984 459.24 150.816 460.69 150.482C462.178 150.11 463.703 149.589 465.265 148.919V153.215C463.74 153.885 462.234 154.368 460.746 154.666C459.258 155.001 457.491 155.168 455.446 155.168C452.619 155.168 450.108 154.592 447.914 153.439C445.757 152.286 444.064 150.575 442.837 148.306C441.647 146 441.052 143.192 441.052 139.881C441.052 136.608 441.591 133.8 442.67 131.457C443.785 129.114 445.329 127.31 447.3 126.045C449.309 124.781 451.633 124.148 454.274 124.148ZM454.218 128.165C451.875 128.165 450.015 128.928 448.639 130.453C447.3 131.94 446.501 134.023 446.24 136.701H461.471C461.471 134.99 461.211 133.503 460.69 132.238C460.169 130.973 459.37 129.988 458.291 129.281C457.25 128.537 455.892 128.165 454.218 128.165Z" fill="white"/>
<path d="M420.978 154.61L409.652 124.706H414.896L421.257 142.336C421.554 143.154 421.87 144.066 422.205 145.07C422.54 146.074 422.837 147.041 423.098 147.971C423.358 148.864 423.544 149.626 423.656 150.259H423.879C424.028 149.626 424.232 148.845 424.493 147.915C424.79 146.985 425.106 146.018 425.441 145.014C425.813 144.01 426.129 143.117 426.389 142.336L432.75 124.706H437.994L426.613 154.61H420.978Z" fill="white"/>
<path d="M394.3 124.148C397.871 124.148 400.567 125.022 402.39 126.77C404.212 128.481 405.124 131.271 405.124 135.139V154.61H400.27V135.474C400.27 133.056 399.73 131.252 398.652 130.062C397.573 128.872 395.881 128.277 393.575 128.277C390.265 128.277 387.977 129.207 386.713 131.066C385.448 132.926 384.816 135.604 384.816 139.1V154.61H379.906V124.706H383.867L384.592 128.779H384.871C385.541 127.737 386.359 126.882 387.326 126.212C388.33 125.506 389.428 124.985 390.618 124.65C391.808 124.316 393.036 124.148 394.3 124.148Z" fill="white"/>
<path d="M372.884 154.61H358.49V151.709L363.176 150.649V118.792L358.49 117.676V114.775H372.884V117.676L368.197 118.792V150.649L372.884 151.709V154.61Z" fill="white"/>
<path d="M618.278 89.2493C618.278 91.1834 617.794 92.8013 616.827 94.1031C615.86 95.4049 614.484 96.3905 612.698 97.06C610.913 97.7295 608.793 98.0643 606.338 98.0643C604.255 98.0643 602.451 97.8969 600.926 97.5621C599.439 97.2274 598.118 96.7625 596.965 96.1674V91.7041C598.156 92.2992 599.587 92.8571 601.261 93.3778C602.972 93.8613 604.702 94.1031 606.45 94.1031C608.942 94.1031 610.746 93.7125 611.862 92.9315C612.977 92.1132 613.535 91.0346 613.535 89.6956C613.535 88.9517 613.331 88.2822 612.922 87.6871C612.512 87.092 611.769 86.4969 610.69 85.9018C609.648 85.3067 608.142 84.6372 606.171 83.8933C604.237 83.1494 602.582 82.4055 601.205 81.6617C599.829 80.9178 598.769 80.0251 598.025 78.9837C597.281 77.9423 596.909 76.6033 596.909 74.9667C596.909 72.4375 597.932 70.4848 599.978 69.1087C602.061 67.7325 604.776 67.0444 608.124 67.0444C609.946 67.0444 611.638 67.2304 613.201 67.6023C614.8 67.9371 616.288 68.4206 617.664 69.0529L615.99 72.9583C615.172 72.5863 614.298 72.2702 613.368 72.0098C612.475 71.7123 611.564 71.4891 610.634 71.3403C609.704 71.1544 608.756 71.0614 607.789 71.0614C605.78 71.0614 604.237 71.3961 603.158 72.0656C602.117 72.6979 601.596 73.572 601.596 74.6878C601.596 75.506 601.838 76.2127 602.321 76.8078C602.805 77.3658 603.604 77.9237 604.72 78.4816C605.873 79.0023 607.398 79.6346 609.295 80.3785C611.192 81.0852 612.81 81.8104 614.149 82.5543C615.488 83.2982 616.511 84.2095 617.217 85.2881C617.924 86.3295 618.278 87.6499 618.278 89.2493Z" fill="white"/>
<path d="M575.082 98.0642C571.363 98.0642 568.387 96.781 566.156 94.2146C563.924 91.611 562.808 87.7429 562.808 82.6101C562.808 77.4773 563.924 73.6091 566.156 71.0055C568.425 68.3648 571.419 67.0444 575.138 67.0444C576.7 67.0444 578.058 67.2489 579.211 67.6581C580.364 68.03 581.368 68.5507 582.224 69.2202C583.079 69.8897 583.804 70.6336 584.399 71.4519H584.734C584.697 70.9683 584.623 70.2617 584.511 69.3318C584.437 68.3648 584.399 67.6023 584.399 67.0444V55.1051H589.309V97.5063H585.348L584.623 93.4894H584.399C583.804 94.3448 583.079 95.1259 582.224 95.8326C581.368 96.5021 580.345 97.0414 579.155 97.4505C578.002 97.8597 576.645 98.0642 575.082 98.0642ZM575.863 93.9915C579.025 93.9915 581.238 93.136 582.503 91.4251C583.804 89.6769 584.455 87.0548 584.455 83.5585V82.6659C584.455 78.9465 583.842 76.1011 582.614 74.1298C581.387 72.1214 579.118 71.1171 575.808 71.1171C573.167 71.1171 571.177 72.1771 569.838 74.2972C568.536 76.3801 567.885 79.1882 567.885 82.7217C567.885 86.2923 568.536 89.0633 569.838 91.0345C571.177 93.0058 573.185 93.9915 575.863 93.9915Z" fill="white"/>
<path d="M556.473 67.0444C557.031 67.0444 557.626 67.0816 558.258 67.156C558.927 67.1932 559.504 67.2676 559.987 67.3792L559.374 71.8982C558.89 71.7866 558.351 71.6937 557.756 71.6193C557.198 71.5449 556.659 71.5077 556.138 71.5077C554.985 71.5077 553.888 71.7495 552.846 72.233C551.805 72.7165 550.875 73.4046 550.057 74.2972C549.238 75.1527 548.587 76.1941 548.104 77.4215C547.658 78.6489 547.434 80.0251 547.434 81.5501V97.5063H542.525V67.6023H546.542L547.1 73.0698H547.323C547.955 71.954 548.718 70.9498 549.61 70.0571C550.503 69.1273 551.526 68.402 552.679 67.8813C553.832 67.3234 555.096 67.0444 556.473 67.0444Z" fill="white"/>
<path d="M522.577 67.1002C526.222 67.1002 528.919 67.8999 530.667 69.4992C532.415 71.0986 533.289 73.6464 533.289 77.1426V97.5063H529.718L528.77 93.2662H528.547C527.691 94.3449 526.799 95.2561 525.869 96C524.976 96.7067 523.935 97.2274 522.745 97.5621C521.592 97.8969 520.178 98.0643 518.504 98.0643C516.719 98.0643 515.101 97.7481 513.651 97.1158C512.237 96.4835 511.121 95.5165 510.303 94.2147C509.485 92.8757 509.076 91.2019 509.076 89.1935C509.076 86.2179 510.247 83.9305 512.591 82.3312C514.934 80.6946 518.542 79.802 523.414 79.6532L528.491 79.4858V77.7005C528.491 75.2085 527.952 73.479 526.873 72.5119C525.795 71.5449 524.27 71.0614 522.298 71.0614C520.736 71.0614 519.248 71.3031 517.835 71.7867C516.422 72.233 515.101 72.7537 513.874 73.3488L512.367 69.6666C513.669 68.9599 515.213 68.3648 516.998 67.8813C518.783 67.3605 520.643 67.1002 522.577 67.1002ZM524.028 83.0564C520.308 83.2052 517.723 83.8003 516.273 84.8418C514.859 85.8832 514.153 87.3524 514.153 89.2493C514.153 90.923 514.655 92.1504 515.659 92.9315C516.701 93.7126 518.021 94.1031 519.62 94.1031C522.149 94.1031 524.251 93.415 525.925 92.0388C527.598 90.6255 528.435 88.4682 528.435 85.567V82.8891L524.028 83.0564Z" fill="white"/>
<path d="M487.527 98.0642C483.808 98.0642 480.832 96.781 478.601 94.2146C476.369 91.611 475.253 87.7429 475.253 82.6101C475.253 77.4773 476.369 73.6091 478.601 71.0055C480.869 68.3648 483.864 67.0444 487.583 67.0444C489.145 67.0444 490.503 67.2489 491.656 67.6581C492.809 68.03 493.813 68.5507 494.668 69.2202C495.524 69.8897 496.249 70.6336 496.844 71.4519H497.179C497.142 70.9683 497.067 70.2617 496.956 69.3318C496.881 68.3648 496.844 67.6023 496.844 67.0444V55.1051H501.754V97.5063H497.793L497.067 93.4894H496.844C496.249 94.3448 495.524 95.1259 494.668 95.8326C493.813 96.5021 492.79 97.0414 491.6 97.4505C490.447 97.8597 489.089 98.0642 487.527 98.0642ZM488.308 93.9915C491.47 93.9915 493.683 93.136 494.947 91.4251C496.249 89.6769 496.9 87.0548 496.9 83.5585V82.6659C496.9 78.9465 496.286 76.1011 495.059 74.1298C493.832 72.1214 491.563 71.1171 488.252 71.1171C485.612 71.1171 483.622 72.1771 482.283 74.2972C480.981 76.3801 480.33 79.1882 480.33 82.7217C480.33 86.2923 480.981 89.0633 482.283 91.0345C483.622 93.0058 485.63 93.9915 488.308 93.9915Z" fill="white"/>
<path d="M456.833 67.0444C460.404 67.0444 463.1 67.9185 464.923 69.6666C466.745 71.3775 467.657 74.1671 467.657 78.0352V97.5063H462.803V78.37C462.803 75.9524 462.263 74.1485 461.185 72.9583C460.106 71.7681 458.414 71.1729 456.108 71.1729C452.797 71.1729 450.51 72.1028 449.245 73.9625C447.981 75.8222 447.349 78.5002 447.349 81.9964V97.5063H442.439V67.6023H446.4L447.125 71.6751H447.404C448.074 70.6336 448.892 69.7782 449.859 69.1087C450.863 68.402 451.961 67.8813 453.151 67.5465C454.341 67.2118 455.568 67.0444 456.833 67.0444Z" fill="white"/>
<path d="M422.491 67.1002C426.136 67.1002 428.832 67.8999 430.58 69.4992C432.329 71.0986 433.203 73.6464 433.203 77.1426V97.5063H429.632L428.684 93.2662H428.46C427.605 94.3449 426.712 95.2561 425.782 96C424.89 96.7067 423.848 97.2274 422.658 97.5621C421.505 97.8969 420.092 98.0643 418.418 98.0643C416.633 98.0643 415.015 97.7481 413.564 97.1158C412.151 96.4835 411.035 95.5165 410.217 94.2147C409.398 92.8757 408.989 91.2019 408.989 89.1935C408.989 86.2179 410.161 83.9305 412.504 82.3312C414.847 80.6946 418.455 79.802 423.328 79.6532L428.405 79.4858V77.7005C428.405 75.2085 427.865 73.479 426.787 72.5119C425.708 71.5449 424.183 71.0614 422.212 71.0614C420.65 71.0614 419.162 71.3031 417.748 71.7867C416.335 72.233 415.015 72.7537 413.787 73.3488L412.281 69.6666C413.583 68.9599 415.126 68.3648 416.912 67.8813C418.697 67.3605 420.557 67.1002 422.491 67.1002ZM423.941 83.0564C420.222 83.2052 417.637 83.8003 416.186 84.8418C414.773 85.8832 414.066 87.3524 414.066 89.2493C414.066 90.923 414.568 92.1504 415.573 92.9315C416.614 93.7126 417.934 94.1031 419.534 94.1031C422.063 94.1031 424.164 93.415 425.838 92.0388C427.512 90.6255 428.349 88.4682 428.349 85.567V82.8891L423.941 83.0564Z" fill="white"/>
<path d="M400.993 94.0473C401.737 94.0473 402.499 93.9915 403.28 93.8799C404.062 93.7311 404.694 93.5823 405.177 93.4336V97.1715C404.657 97.4319 403.913 97.6365 402.946 97.7852C401.979 97.9712 401.049 98.0642 400.156 98.0642C398.594 98.0642 397.143 97.8039 395.804 97.2831C394.503 96.7252 393.443 95.7768 392.624 94.4378C391.806 93.0988 391.397 91.2205 391.397 88.8029V71.3961H387.157V69.0528L391.453 67.1001L393.405 60.74H396.307V67.6023H404.954V71.3961H396.307V88.6913C396.307 90.5138 396.734 91.8714 397.59 92.7641C398.482 93.6195 399.617 94.0473 400.993 94.0473Z" fill="white"/>
<path d="M383.652 86.8503C383.652 89.2307 383.075 91.2578 381.922 92.9315C380.769 94.568 379.114 95.8326 376.957 96.7253C374.837 97.618 372.326 98.0643 369.425 98.0643C367.937 98.0643 366.505 97.9899 365.129 97.8411C363.79 97.6924 362.562 97.4878 361.447 97.2274C360.331 96.9299 359.345 96.5765 358.49 96.1674V91.3694C359.829 91.9645 361.484 92.5038 363.455 92.9873C365.464 93.4708 367.528 93.7126 369.648 93.7126C371.619 93.7126 373.274 93.4522 374.613 92.9315C375.952 92.4108 376.957 91.6669 377.626 90.6999C378.296 89.7328 378.63 88.5984 378.63 87.2966C378.63 85.9948 378.351 84.8976 377.793 84.0049C377.236 83.1123 376.269 82.294 374.892 81.5501C373.553 80.7691 371.675 79.9508 369.257 79.0953C367.546 78.463 366.04 77.7935 364.738 77.0868C363.474 76.3429 362.414 75.5061 361.558 74.5762C360.703 73.6464 360.052 72.5864 359.606 71.3961C359.196 70.2059 358.992 68.8298 358.992 67.2676C358.992 65.1475 359.531 63.3436 360.61 61.8559C361.688 60.3309 363.176 59.1593 365.073 58.341C367.007 57.5227 369.22 57.1136 371.712 57.1136C373.907 57.1136 375.915 57.3182 377.738 57.7273C379.56 58.1365 381.215 58.6758 382.703 59.3453L381.141 63.6412C379.765 63.0461 378.258 62.5439 376.622 62.1348C375.023 61.7257 373.349 61.5211 371.601 61.5211C369.927 61.5211 368.532 61.7629 367.416 62.2464C366.3 62.7299 365.464 63.418 364.906 64.3107C364.348 65.1661 364.069 66.1704 364.069 67.3234C364.069 68.6624 364.348 69.7782 364.906 70.6709C365.464 71.5635 366.375 72.3632 367.639 73.0699C368.904 73.7766 370.615 74.539 372.772 75.3573C375.115 76.2128 377.087 77.1426 378.686 78.1469C380.323 79.1139 381.55 80.2855 382.368 81.6617C383.224 83.0379 383.652 84.7674 383.652 86.8503Z" fill="white"/>
<path d="M573.42 38.5469C574.164 38.5469 574.926 38.4911 575.707 38.3795C576.489 38.2307 577.121 38.082 577.604 37.9332V41.6712C577.084 41.9315 576.34 42.1361 575.373 42.2849C574.406 42.4709 573.476 42.5639 572.583 42.5639C571.021 42.5639 569.57 42.3035 568.231 41.7828C566.93 41.2249 565.87 40.2764 565.051 38.9374C564.233 37.5984 563.824 35.7201 563.824 33.3025V15.8957H559.584V13.5525L563.88 11.5998L565.832 5.23959H568.734V12.1019H577.381V15.8957H568.734V33.1909C568.734 35.0135 569.161 36.371 570.017 37.2637C570.909 38.1192 572.044 38.5469 573.42 38.5469Z" fill="white"/>
<path d="M556.208 33.7489C556.208 35.683 555.724 37.3009 554.757 38.6027C553.79 39.9045 552.414 40.8902 550.629 41.5597C548.843 42.2291 546.723 42.5639 544.268 42.5639C542.185 42.5639 540.382 42.3965 538.857 42.0618C537.369 41.727 536.048 41.2621 534.895 40.667V36.2037C536.086 36.7988 537.518 37.3567 539.191 37.8774C540.902 38.361 542.632 38.6027 544.38 38.6027C546.872 38.6027 548.676 38.2122 549.792 37.4311C550.907 36.6128 551.465 35.5342 551.465 34.1952C551.465 33.4513 551.261 32.7819 550.852 32.1868C550.443 31.5916 549.699 30.9965 548.62 30.4014C547.579 29.8063 546.072 29.1368 544.101 28.393C542.167 27.6491 540.512 26.9052 539.136 26.1613C537.759 25.4174 536.699 24.5248 535.955 23.4833C535.212 22.4419 534.84 21.1029 534.84 19.4664C534.84 16.9372 535.862 14.9845 537.908 13.6083C539.991 12.2321 542.706 11.544 546.054 11.544C547.876 11.544 549.569 11.73 551.131 12.102C552.73 12.4367 554.218 12.9202 555.594 13.5525L553.92 17.4579C553.102 17.086 552.228 16.7698 551.298 16.5094C550.405 16.2119 549.494 15.9887 548.564 15.84C547.634 15.654 546.686 15.561 545.719 15.561C543.71 15.561 542.167 15.8957 541.088 16.5652C540.047 17.1975 539.526 18.0716 539.526 19.1874C539.526 20.0057 539.768 20.7124 540.251 21.3075C540.735 21.8654 541.535 22.4233 542.65 22.9812C543.803 23.5019 545.328 24.1342 547.225 24.8781C549.122 25.5848 550.74 26.3101 552.079 27.054C553.418 27.7978 554.441 28.7091 555.148 29.7877C555.854 30.8292 556.208 32.1496 556.208 33.7489Z" fill="white"/>
<path d="M516.788 11.5999C520.433 11.5999 523.13 12.3995 524.878 13.9989C526.626 15.5982 527.5 18.146 527.5 21.6423V42.006H523.93L522.981 37.7659H522.758C521.903 38.8445 521.01 39.7558 520.08 40.4996C519.187 41.2063 518.146 41.727 516.956 42.0618C515.803 42.3965 514.389 42.5639 512.716 42.5639C510.93 42.5639 509.312 42.2478 507.862 41.6155C506.449 40.9832 505.333 40.0161 504.514 38.7143C503.696 37.3753 503.287 35.7016 503.287 33.6931C503.287 30.7176 504.459 28.4302 506.802 26.8308C509.145 25.1943 512.753 24.3016 517.625 24.1529L522.702 23.9855V22.2002C522.702 19.7082 522.163 17.9787 521.084 17.0116C520.006 16.0446 518.481 15.561 516.509 15.561C514.947 15.561 513.46 15.8028 512.046 16.2863C510.633 16.7326 509.312 17.2534 508.085 17.8485L506.579 14.1662C507.88 13.4596 509.424 12.8645 511.209 12.3809C512.995 11.8602 514.854 11.5999 516.788 11.5999ZM518.239 27.5561C514.52 27.7049 511.935 28.3 510.484 29.3414C509.071 30.3829 508.364 31.852 508.364 33.7489C508.364 35.4227 508.866 36.6501 509.87 37.4311C510.912 38.2122 512.232 38.6028 513.832 38.6028C516.361 38.6028 518.462 37.9147 520.136 36.5385C521.81 35.1251 522.647 32.9679 522.647 30.0667V27.3888L518.239 27.5561Z" fill="white"/>
<path d="M497.454 11.544C498.012 11.544 498.607 11.5812 499.239 11.6556C499.909 11.6928 500.485 11.7672 500.969 11.8788L500.355 16.3979C499.871 16.2863 499.332 16.1933 498.737 16.1189C498.179 16.0445 497.64 16.0073 497.119 16.0073C495.966 16.0073 494.869 16.2491 493.827 16.7326C492.786 17.2161 491.856 17.9042 491.038 18.7969C490.22 19.6523 489.569 20.6938 489.085 21.9212C488.639 23.1486 488.416 24.5248 488.416 26.0497V42.006H483.506V12.102H487.523L488.081 17.5695H488.304C488.936 16.4536 489.699 15.4494 490.592 14.5568C491.484 13.6269 492.507 12.9016 493.66 12.3809C494.813 11.823 496.078 11.544 497.454 11.544Z" fill="white"/>
<path d="M473.334 38.5469C474.078 38.5469 474.84 38.4911 475.621 38.3795C476.402 38.2307 477.035 38.082 477.518 37.9332V41.6712C476.997 41.9315 476.254 42.1361 475.286 42.2849C474.319 42.4709 473.39 42.5639 472.497 42.5639C470.935 42.5639 469.484 42.3035 468.145 41.7828C466.843 41.2249 465.783 40.2764 464.965 38.9374C464.147 37.5984 463.738 35.7201 463.738 33.3025V15.8957H459.498V13.5525L463.794 11.5998L465.746 5.23959H468.647V12.1019H477.295V15.8957H468.647V33.1909C468.647 35.0135 469.075 36.371 469.931 37.2637C470.823 38.1192 471.958 38.5469 473.334 38.5469Z" fill="white"/>
<path d="M443.254 11.544C446.824 11.544 449.521 12.4181 451.343 14.1662C453.166 15.8771 454.077 18.6667 454.077 22.5349V42.006H449.223V22.8696C449.223 20.452 448.684 18.6481 447.605 17.4579C446.527 16.2677 444.834 15.6726 442.528 15.6726C439.218 15.6726 436.931 16.6024 435.666 18.4621C434.401 20.3218 433.769 22.9998 433.769 26.496V42.006H428.859V12.102H432.821L433.546 16.1747H433.825C434.494 15.1333 435.313 14.2778 436.28 13.6083C437.284 12.9016 438.381 12.3809 439.571 12.0462C440.762 11.7114 441.989 11.544 443.254 11.544Z" fill="white"/>
<path d="M421.078 26.9982C421.078 29.4902 420.743 31.7032 420.074 33.6373C419.441 35.5342 418.512 37.1521 417.284 38.4911C416.094 39.8301 414.625 40.853 412.877 41.5597C411.166 42.2291 409.25 42.5639 407.13 42.5639C405.159 42.5639 403.336 42.2291 401.663 41.5597C399.989 40.853 398.538 39.8301 397.311 38.4911C396.084 37.1521 395.117 35.5342 394.41 33.6373C393.74 31.7032 393.406 29.4902 393.406 26.9982C393.406 23.6879 393.964 20.8984 395.079 18.6295C396.195 16.3235 397.795 14.5753 399.877 13.3851C401.96 12.1577 404.434 11.544 407.298 11.544C410.013 11.544 412.393 12.1577 414.439 13.3851C416.522 14.5753 418.14 16.3235 419.293 18.6295C420.483 20.8984 421.078 23.6879 421.078 26.9982ZM398.483 26.9982C398.483 29.3414 398.78 31.3871 399.375 33.1352C400.008 34.8461 400.975 36.1665 402.276 37.0964C403.578 38.0262 405.233 38.4911 407.242 38.4911C409.25 38.4911 410.905 38.0262 412.207 37.0964C413.509 36.1665 414.457 34.8461 415.053 33.1352C415.685 31.3871 416.001 29.3414 416.001 26.9982C416.001 24.6178 415.685 22.5907 415.053 20.9169C414.42 19.2432 413.453 17.96 412.151 17.0674C410.887 16.1375 409.232 15.6726 407.186 15.6726C404.136 15.6726 401.923 16.6768 400.547 18.6853C399.171 20.6938 398.483 23.4647 398.483 26.9982Z" fill="white"/>
<path d="M377.57 6.02075C375.45 6.02075 373.535 6.39269 371.824 7.13658C370.113 7.84326 368.662 8.90329 367.472 10.3167C366.282 11.6928 365.371 13.3852 364.738 15.3936C364.106 17.3649 363.79 19.5966 363.79 22.0886C363.79 25.3617 364.292 28.207 365.296 30.6246C366.338 33.0422 367.863 34.9019 369.871 36.2037C371.917 37.5055 374.465 38.1564 377.515 38.1564C379.263 38.1564 380.918 38.0076 382.48 37.7101C384.042 37.4125 385.567 37.0406 387.055 36.5943V40.946C385.567 41.5039 384.023 41.913 382.424 42.1734C380.862 42.4337 378.984 42.5639 376.789 42.5639C372.735 42.5639 369.35 41.7271 366.635 40.0533C363.92 38.3796 361.874 35.9992 360.498 32.9121C359.159 29.8249 358.49 26.1985 358.49 22.0328C358.49 19.0201 358.899 16.2677 359.717 13.7757C360.573 11.2837 361.8 9.12646 363.399 7.30395C365.036 5.48144 367.044 4.08667 369.425 3.11962C371.805 2.11538 374.539 1.61325 377.626 1.61325C379.672 1.61325 381.643 1.81782 383.54 2.22695C385.437 2.63609 387.129 3.2126 388.617 3.95648L386.608 8.1966C385.381 7.63869 384.005 7.13658 382.48 6.69025C380.992 6.24392 379.356 6.02075 377.57 6.02075Z" fill="white"/>
</svg>
