<svg width="250" height="79" viewBox="0 0 250 79" fill="none" xmlns="http://www.w3.org/2000/svg">
<path d="M179.702 70.8904C179.538 70.8904 179.398 70.8324 179.282 70.7166C179.175 70.6007 179.122 70.4606 179.122 70.2964V63.9801C179.122 63.816 179.175 63.6807 179.282 63.5745C179.398 63.4586 179.538 63.4007 179.702 63.4007C179.877 63.4007 180.017 63.4586 180.123 63.5745C180.23 63.6807 180.283 63.816 180.283 63.9801V65.8924L180.109 65.5882C180.167 65.2888 180.268 64.9991 180.413 64.719C180.568 64.4292 180.762 64.1733 180.994 63.9512C181.226 63.7194 181.492 63.5407 181.792 63.4152C182.092 63.2799 182.421 63.2123 182.779 63.2123C182.991 63.2123 183.185 63.2655 183.359 63.3717C183.543 63.4683 183.635 63.6083 183.635 63.7918C183.635 63.9946 183.582 64.1443 183.475 64.2409C183.369 64.3375 183.248 64.3858 183.112 64.3858C182.987 64.3858 182.866 64.3616 182.75 64.3133C182.634 64.2554 182.488 64.2264 182.314 64.2264C182.073 64.2264 181.831 64.294 181.589 64.4292C181.357 64.5548 181.139 64.7383 180.936 64.9797C180.742 65.2212 180.583 65.4964 180.457 65.8055C180.341 66.1049 180.283 66.4284 180.283 66.7761V70.2964C180.283 70.4606 180.225 70.6007 180.109 70.7166C180.002 70.8324 179.867 70.8904 179.702 70.8904Z" fill="#3D3D3D"/>
<path d="M176.39 63.3282C176.555 63.3282 176.69 63.3862 176.797 63.5021C176.913 63.6083 176.971 63.7435 176.971 63.9077V70.2964C176.971 70.4606 176.913 70.6007 176.797 70.7166C176.69 70.8324 176.555 70.8904 176.39 70.8904C176.216 70.8904 176.076 70.8324 175.97 70.7166C175.863 70.6007 175.81 70.4606 175.81 70.2964V68.9202L176.086 68.8912C176.086 69.1037 176.013 69.3355 175.868 69.5866C175.723 69.8377 175.525 70.0743 175.273 70.2964C175.022 70.5089 174.722 70.6876 174.373 70.8324C174.035 70.9677 173.667 71.0353 173.271 71.0353C172.613 71.0353 172.023 70.8662 171.5 70.5282C170.978 70.1805 170.562 69.7121 170.253 69.123C169.953 68.5339 169.803 67.8626 169.803 67.1093C169.803 66.3463 169.953 65.6751 170.253 65.0956C170.562 64.5065 170.978 64.0477 171.5 63.7194C172.023 63.3813 172.603 63.2123 173.242 63.2123C173.658 63.2123 174.045 63.2799 174.403 63.4152C174.76 63.5504 175.07 63.7339 175.331 63.9657C175.602 64.1974 175.81 64.4534 175.955 64.7335C176.11 65.0135 176.187 65.2936 176.187 65.5737L175.81 65.4868V63.9077C175.81 63.7435 175.863 63.6083 175.97 63.5021C176.076 63.3862 176.216 63.3282 176.39 63.3282ZM173.401 69.9632C173.885 69.9632 174.311 69.8377 174.678 69.5866C175.055 69.3355 175.346 68.9974 175.549 68.5725C175.762 68.1379 175.868 67.6502 175.868 67.1093C175.868 66.5781 175.762 66.1001 175.549 65.6751C175.346 65.2405 175.055 64.9025 174.678 64.661C174.311 64.4099 173.885 64.2844 173.401 64.2844C172.927 64.2844 172.502 64.4051 172.124 64.6465C171.757 64.888 171.467 65.2212 171.254 65.6461C171.041 66.0711 170.935 66.5588 170.935 67.1093C170.935 67.6502 171.036 68.1379 171.239 68.5725C171.452 68.9974 171.742 69.3355 172.11 69.5866C172.487 69.8377 172.918 69.9632 173.401 69.9632Z" fill="#3D3D3D"/>
<path d="M165.772 60.7494C166.304 60.7494 166.783 60.8798 167.208 61.1406C167.634 61.4013 167.968 61.7587 168.209 62.2126C168.461 62.6665 168.587 63.1832 168.587 63.7627C168.587 64.3325 168.461 64.8492 168.209 65.3128C167.968 65.7764 167.634 66.1434 167.208 66.4138C166.783 66.6842 166.304 66.8194 165.772 66.8194H162.826L162.928 66.6456V70.2963C162.928 70.4605 162.875 70.6005 162.768 70.7164C162.662 70.8323 162.526 70.8903 162.362 70.8903C162.188 70.8903 162.047 70.8323 161.941 70.7164C161.844 70.6005 161.796 70.4605 161.796 70.2963V61.3289C161.796 61.1647 161.849 61.0295 161.956 60.9233C162.072 60.8074 162.212 60.7494 162.376 60.7494H165.772ZM165.772 65.704C166.091 65.704 166.371 65.617 166.613 65.4432C166.855 65.2693 167.049 65.0327 167.194 64.7333C167.339 64.4339 167.411 64.1104 167.411 63.7627C167.411 63.3957 167.339 63.0722 167.194 62.7921C167.049 62.512 166.855 62.2899 166.613 62.1257C166.371 61.9518 166.091 61.8649 165.772 61.8649H162.826L162.928 61.7056V65.8488L162.826 65.704H165.772Z" fill="#3D3D3D"/>
<path d="M250 67.911C249.871 68.3452 249.825 68.7984 249.673 69.2295C248.818 71.655 246.246 73.1887 243.683 72.8941C241.398 72.6314 239.35 70.7745 238.902 68.6317C238.427 66.3583 239.044 64.4232 240.859 62.9472C242.747 61.4102 245.3 61.2656 247.355 62.5647C248.793 63.4737 249.68 64.782 249.939 66.4846C249.949 66.5477 249.908 66.6335 250 66.6712V67.9115L250 67.911ZM240.362 67.303C240.351 69.4933 242.137 71.2935 244.345 71.3167C246.534 71.3399 248.363 69.545 248.379 67.3558C248.396 65.1418 246.615 63.3351 244.398 63.3189C242.185 63.3027 240.374 65.0905 240.362 67.303Z" fill="#3D3D3D"/>
<path d="M199.053 56.5343C199.061 56.5937 199.119 56.5829 199.153 56.6061C199.327 56.7242 199.407 56.8823 199.344 57.0905C199.282 57.2972 199.131 57.3997 198.92 57.3937C198.719 57.3878 198.58 57.2745 198.531 57.0808C198.475 56.8634 198.557 56.6946 198.759 56.5915C198.79 56.5759 198.828 56.5764 198.838 56.5338H199.054L199.053 56.5343Z" fill="#3D3D3D"/>
<path d="M188.734 68.2885C188.813 68.22 188.881 68.1299 188.973 68.0878C189.175 67.9944 189.361 68.0441 189.497 68.2243C189.627 68.3964 189.601 68.6418 189.434 68.7821C189.262 68.9267 189.076 68.9315 188.892 68.7999C188.836 68.76 188.787 68.7109 188.734 68.6661C188.734 68.5404 188.734 68.4147 188.734 68.2885Z" fill="#3D3D3D"/>
<path d="M188.734 62.4116C188.77 62.363 188.805 62.3129 188.842 62.2654C189.011 62.0507 189.29 62.0253 189.48 62.206C189.649 62.3679 189.654 62.6463 189.489 62.8103C189.304 62.9942 189.019 62.9743 188.848 62.7666C188.81 62.7202 188.808 62.6441 188.734 62.6274C188.734 62.5551 188.734 62.4833 188.734 62.4116Z" fill="#3D3D3D"/>
<path d="M198.621 74.5428C198.631 74.4743 198.566 74.4613 198.533 74.4241C198.357 74.2202 198.368 73.965 198.56 73.8037C198.731 73.6591 198.995 73.6742 199.146 73.8366C199.314 74.0173 199.294 74.2768 199.098 74.4581C199.066 74.4872 199.032 74.5147 198.999 74.5428H198.621Z" fill="#3D3D3D"/>
<path d="M224.065 66.8363C224.467 65.8992 224.842 65.0269 225.216 64.1545C226.154 61.9691 227.091 59.7837 228.03 57.5993C228.172 57.2691 228.35 56.9632 228.755 56.9147C229.227 56.858 229.546 57.097 229.679 57.6252C229.817 58.1733 229.932 58.7273 230.054 59.2792C230.803 62.6434 231.55 66.0082 232.298 69.3724C232.483 70.2048 232.675 71.0356 232.856 71.8686C233.008 72.5672 232.67 72.967 231.976 72.9249C231.606 72.9028 231.385 72.7177 231.292 72.3158C231.022 71.1354 230.761 69.9529 230.497 68.7709C229.878 65.9958 229.261 63.2201 228.642 60.4434C228.529 60.4564 228.535 60.5594 228.507 60.6252C227.312 63.4014 226.121 66.1792 224.928 68.9565C224.864 69.1043 224.798 69.2553 224.707 69.3864C224.382 69.8515 223.764 69.8569 223.428 69.401C223.355 69.3012 223.298 69.1863 223.249 69.0714C222.028 66.2364 220.809 63.4003 219.59 60.5643C219.566 60.5082 219.541 60.4526 219.492 60.3415C219.296 61.2181 219.114 62.0371 218.931 62.8555C218.232 65.9909 217.534 69.1264 216.833 72.2613C216.723 72.7528 216.481 72.9394 216.001 72.9254C215.438 72.9092 215.135 72.5472 215.254 71.9959C215.562 70.5749 215.881 69.1561 216.197 67.7372C216.931 64.4345 217.666 61.1313 218.403 57.8291C218.44 57.6635 218.484 57.4946 218.557 57.343C218.807 56.8219 219.485 56.7469 219.857 57.1904C219.975 57.3301 220.047 57.4946 220.117 57.6597C221.395 60.6344 222.673 63.6091 223.951 66.5844C223.979 66.6486 224.008 66.7117 224.064 66.8368L224.065 66.8363Z" fill="#EB028C"/>
<path d="M235.003 67.3179C235.003 65.7815 235.003 64.2451 235.003 62.7086C235.003 62.6277 234.999 62.5462 235.006 62.4658C235.048 61.9431 235.289 61.7133 235.794 61.71C236.335 61.7063 236.568 61.9118 236.623 62.448C236.634 62.5457 236.634 62.645 236.634 62.7437C236.634 65.7896 236.634 68.836 236.634 71.882C236.634 71.9715 236.636 72.0621 236.627 72.1512C236.562 72.8131 236.02 73.1233 235.403 72.853C235.196 72.7624 235.081 72.5962 235.041 72.3821C235.015 72.2418 235.004 72.0967 235.004 71.9542C235.002 70.4086 235.003 68.863 235.003 67.3179H235.003Z" fill="#3D3D3D"/>
<path d="M213.102 67.3266C213.102 68.9078 213.102 70.489 213.102 72.0702C213.102 72.77 212.565 73.1265 211.91 72.8622C211.724 72.7872 211.598 72.6523 211.54 72.4603C211.498 72.3222 211.489 72.1792 211.489 72.0341C211.491 68.8803 211.49 65.727 211.491 62.5732C211.491 61.9798 211.735 61.7144 212.277 61.71C212.846 61.7057 213.102 61.9571 213.102 62.5284C213.103 64.1275 213.102 65.727 213.102 67.326V67.3266Z" fill="#3D3D3D"/>
<path d="M195.368 65.59C195.369 64.7495 195.891 64.0185 196.687 63.7402C197.471 63.4661 198.348 63.7213 198.875 64.3687C198.983 64.5024 199.013 64.571 198.838 64.6918C198.167 65.1531 198.167 66.0373 198.842 66.4969C199.032 66.6258 198.971 66.6965 198.871 66.8206C198.338 67.4766 197.465 67.7205 196.657 67.4345C195.884 67.1605 195.367 66.4208 195.369 65.5906L195.368 65.59Z" fill="#EB028C"/>
<path d="M213.153 57.7688C213.149 58.2392 212.738 58.6271 212.258 58.6152C211.801 58.6039 211.418 58.1961 211.426 57.7305C211.434 57.2698 211.832 56.8819 212.296 56.883C212.77 56.884 213.157 57.2849 213.153 57.7693L213.153 57.7688Z" fill="#3D3D3D"/>
<path d="M236.611 57.7487C236.617 58.2229 236.225 58.6119 235.737 58.6146C235.286 58.6167 234.89 58.2153 234.883 57.7492C234.876 57.295 235.27 56.8969 235.737 56.8855C236.213 56.8742 236.605 57.261 236.611 57.7487Z" fill="#3D3D3D"/>
<path d="M194.893 64.3098C194.891 64.7468 194.545 65.0861 194.103 65.0856C193.666 65.0851 193.325 64.7414 193.324 64.3007C193.324 63.848 193.673 63.5044 194.127 63.5119C194.564 63.519 194.896 63.8648 194.893 64.3104V64.3098Z" fill="#3D3D3D"/>
<path d="M198.055 61.333C198.48 61.3406 198.837 61.7117 198.826 62.1363C198.815 62.5625 198.453 62.9072 198.018 62.9056C197.579 62.9034 197.225 62.5317 197.239 62.0861C197.252 61.6556 197.611 61.3249 198.055 61.333Z" fill="#3D3D3D"/>
<path d="M200.868 63.3335C200.873 63.7715 200.525 64.1243 200.086 64.1276C199.643 64.1308 199.295 63.7904 199.291 63.3491C199.287 62.9013 199.62 62.5658 200.071 62.5631C200.521 62.5604 200.863 62.89 200.868 63.3329V63.3335Z" fill="#3D3D3D"/>
<path d="M197.131 68.9931C197.127 68.5631 197.477 68.2 197.905 68.1898C198.345 68.1795 198.724 68.548 198.72 68.9806C198.715 69.4101 198.351 69.7764 197.931 69.7742C197.501 69.7721 197.135 69.4149 197.131 68.9931Z" fill="#3D3D3D"/>
<path d="M199.431 64.804C199.858 64.7997 200.225 65.1541 200.233 65.5803C200.241 66.0098 199.859 66.3955 199.431 66.3896C199.006 66.3836 198.644 66.0173 198.644 65.5933C198.644 65.1655 198.999 64.8094 199.431 64.8046L199.431 64.804Z" fill="#EB028C"/>
<path d="M194.866 66.6988C194.863 67.1201 194.49 67.4788 194.062 67.4702C193.625 67.4616 193.279 67.1088 193.282 66.6772C193.286 66.2359 193.656 65.8777 194.098 65.889C194.523 65.8998 194.869 66.265 194.866 66.6988Z" fill="#3D3D3D"/>
<path d="M200.792 67.8241C200.792 68.2692 200.444 68.616 200.007 68.6085C199.559 68.6004 199.22 68.2578 199.225 67.8176C199.23 67.3688 199.565 67.0381 200.015 67.0386C200.466 67.0391 200.792 67.3688 200.792 67.8241Z" fill="#3D3D3D"/>
<path d="M195.587 67.749C196.037 67.7517 196.365 68.0856 196.362 68.5377C196.359 68.986 196.024 69.3145 195.572 69.3129C195.132 69.3113 194.781 68.9553 194.79 68.522C194.801 68.0737 195.139 67.7463 195.587 67.7484V67.749Z" fill="#3D3D3D"/>
<path d="M195.684 61.71C196.123 61.7148 196.463 62.0601 196.461 62.4998C196.46 62.9459 196.102 63.2901 195.648 63.2826C195.216 63.2756 194.877 62.9184 194.885 62.4787C194.893 62.0428 195.244 61.7051 195.684 61.7105V61.71Z" fill="#3D3D3D"/>
<path d="M198.397 72.285C198.034 72.2877 197.745 71.998 197.749 71.6354C197.753 71.2821 198.031 70.9994 198.379 70.9935C198.74 70.987 199.041 71.2756 199.044 71.6306C199.047 71.9915 198.76 72.2828 198.397 72.285Z" fill="#3D3D3D"/>
<path d="M202.791 65.5977C202.788 65.9597 202.494 66.2467 202.133 66.2391C201.784 66.2321 201.499 65.9478 201.495 65.6009C201.49 65.2449 201.784 64.9476 202.143 64.9455C202.503 64.9433 202.794 65.2357 202.791 65.5977H202.791Z" fill="#EB028C"/>
<path d="M202.726 69.5648C202.723 69.9284 202.426 70.2181 202.067 70.2062C201.715 70.1944 201.441 69.9138 201.438 69.5605C201.436 69.1963 201.721 68.9066 202.085 68.9045C202.444 68.9023 202.728 69.1952 202.726 69.5642L202.726 69.5648Z" fill="#3D3D3D"/>
<path d="M202.791 61.6258C202.783 61.9846 202.51 62.2516 202.152 62.2495C201.787 62.2473 201.503 61.9592 201.507 61.5956C201.511 61.2352 201.808 60.9472 202.168 60.9558C202.536 60.9644 202.799 61.2476 202.791 61.6258Z" fill="#3D3D3D"/>
<path d="M194.956 60.153C194.956 60.5306 194.691 60.7955 194.312 60.7966C193.944 60.7977 193.666 60.5145 193.671 60.1449C193.676 59.7942 193.957 59.5132 194.307 59.5089C194.673 59.5045 194.955 59.7845 194.956 60.153Z" fill="#3D3D3D"/>
<path d="M198.494 60.102C198.133 60.102 197.854 59.8182 197.855 59.4514C197.857 59.0915 198.146 58.8072 198.507 58.8083C198.857 58.8094 199.15 59.1072 199.152 59.4638C199.153 59.8107 198.854 60.1014 198.494 60.102Z" fill="#3D3D3D"/>
<path d="M191.536 68.2443C191.16 68.2443 190.883 67.9702 190.887 67.6023C190.891 67.2365 191.178 66.9511 191.539 66.956C191.892 66.9608 192.191 67.2684 192.182 67.6196C192.173 67.9702 191.89 68.2443 191.536 68.2443Z" fill="#3D3D3D"/>
<path d="M194.24 70.229C194.603 70.2339 194.883 70.5274 194.871 70.891C194.859 71.2433 194.578 71.5146 194.225 71.5141C193.855 71.513 193.584 71.2357 193.587 70.8624C193.59 70.4885 193.863 70.2242 194.24 70.229Z" fill="#3D3D3D"/>
<path d="M192.201 63.3933C192.196 63.7574 191.908 64.0299 191.538 64.0191C191.193 64.0094 190.915 63.7191 190.917 63.369C190.918 63.0075 191.206 62.7308 191.576 62.734C191.948 62.7373 192.207 63.0102 192.201 63.3933Z" fill="#3D3D3D"/>
<path d="M192.951 73.4745C192.705 73.4697 192.529 73.2825 192.54 73.0386C192.549 72.8142 192.738 72.6292 192.959 72.6281C193.192 72.627 193.382 72.8212 193.381 73.0597C193.38 73.3041 193.198 73.4799 192.951 73.4751V73.4745Z" fill="#3D3D3D"/>
<path d="M204.667 65.1702C204.905 65.1659 205.094 65.3531 205.094 65.5932C205.094 65.823 204.92 66.0042 204.692 66.0145C204.453 66.0253 204.256 65.8429 204.248 65.6056C204.241 65.3671 204.426 65.1751 204.667 65.1707V65.1702Z" fill="#EB028C"/>
<path d="M204.51 59.9814C204.509 60.2188 204.319 60.4092 204.084 60.406C203.861 60.4027 203.675 60.2193 203.669 59.997C203.663 59.7591 203.846 59.5665 204.083 59.5617C204.321 59.5568 204.51 59.743 204.51 59.9814Z" fill="#3D3D3D"/>
<path d="M193.479 57.9676C193.478 58.1991 193.276 58.4008 193.048 58.3976C192.815 58.3943 192.623 58.1931 192.629 57.9595C192.636 57.7297 192.814 57.5533 193.044 57.5501C193.283 57.5463 193.479 57.7351 193.478 57.9676H193.479Z" fill="#3D3D3D"/>
<path d="M204.044 70.7654C204.289 70.7768 204.458 70.9656 204.441 71.2078C204.424 71.4398 204.248 71.5984 204.013 71.5925C203.765 71.586 203.594 71.4074 203.601 71.1614C203.608 70.9186 203.793 70.7536 204.044 70.7654Z" fill="#3D3D3D"/>
<path d="M236.89 16.9982C239.155 16.9982 241.177 17.5798 242.957 18.7428C244.769 19.8736 246.193 21.4404 247.228 23.4435C248.296 25.4465 248.83 27.7726 248.83 30.4218C248.83 33.0709 248.296 35.4132 247.228 37.4485C246.193 39.4515 244.785 41.0346 243.005 42.1976C241.258 43.3284 239.284 43.8937 237.084 43.8937C235.789 43.8937 234.576 43.6837 233.443 43.2637C232.311 42.8438 231.308 42.3107 230.434 41.6646C229.593 41.0184 228.929 40.3723 228.444 39.7261C227.991 39.0477 227.764 38.4823 227.764 38.03L229.269 37.4V50.1451C229.269 50.9851 228.994 51.6797 228.444 52.2289C227.894 52.8104 227.198 53.1012 226.357 53.1012C225.515 53.1012 224.82 52.8266 224.27 52.2774C223.719 51.7281 223.444 51.0174 223.444 50.1451V20.4389C223.444 19.5989 223.719 18.9044 224.27 18.3551C224.82 17.7736 225.515 17.4828 226.357 17.4828C227.198 17.4828 227.894 17.7736 228.444 18.3551C228.994 18.9044 229.269 19.5989 229.269 20.4389V22.8135L228.444 22.3773C228.444 21.9574 228.67 21.4566 229.123 20.8751C229.576 20.2612 230.191 19.6636 230.968 19.082C231.744 18.4682 232.634 17.9675 233.637 17.5798C234.673 17.1921 235.757 16.9982 236.89 16.9982ZM236.161 22.3289C234.738 22.3289 233.492 22.6843 232.424 23.395C231.356 24.1058 230.515 25.075 229.9 26.3026C229.318 27.498 229.026 28.871 229.026 30.4218C229.026 31.9402 229.318 33.3294 229.9 34.5893C230.515 35.817 231.356 36.7862 232.424 37.497C233.492 38.2077 234.738 38.5631 236.161 38.5631C237.585 38.5631 238.815 38.2077 239.85 37.497C240.918 36.7862 241.743 35.817 242.326 34.5893C242.941 33.3294 243.248 31.9402 243.248 30.4218C243.248 28.871 242.941 27.498 242.326 26.3026C241.743 25.075 240.918 24.1058 239.85 23.395C238.815 22.6843 237.585 22.3289 236.161 22.3289Z" fill="#3D3D3D"/>
<path d="M213.829 9.43843C214.67 9.43843 215.35 9.72919 215.867 10.3107C216.385 10.8599 216.644 11.5545 216.644 12.3945V29.9372C216.644 32.6186 216.062 34.9932 214.897 37.0608C213.764 39.1285 212.195 40.7438 210.188 41.9069C208.182 43.0699 205.852 43.6514 203.199 43.6514C200.545 43.6514 198.199 43.0699 196.161 41.9069C194.154 40.7438 192.569 39.1285 191.404 37.0608C190.271 34.9932 189.705 32.6186 189.705 29.9372V12.3945C189.705 11.5545 189.996 10.8599 190.579 10.3107C191.161 9.72919 191.905 9.43843 192.812 9.43843C193.556 9.43843 194.219 9.72919 194.802 10.3107C195.416 10.8599 195.724 11.5545 195.724 12.3945V29.9372C195.724 31.5525 196.064 32.9579 196.743 34.1532C197.455 35.3163 198.377 36.2208 199.51 36.867C200.675 37.5131 201.904 37.8362 203.199 37.8362C204.59 37.8362 205.885 37.5131 207.082 36.867C208.279 36.2208 209.25 35.3163 209.994 34.1532C210.739 32.9579 211.111 31.5525 211.111 29.9372V12.3945C211.111 11.5545 211.353 10.8599 211.839 10.3107C212.324 9.72919 212.987 9.43843 213.829 9.43843Z" fill="#3D3D3D"/>
<path d="M182.26 38.0785C183.037 38.0785 183.684 38.3369 184.202 38.8539C184.72 39.3385 184.979 39.9684 184.979 40.7438C184.979 41.4869 184.72 42.1168 184.202 42.6338C183.684 43.1507 183.037 43.4091 182.26 43.4091H166.631C165.822 43.4091 165.175 43.1184 164.689 42.5368C164.204 41.9553 163.978 41.3738 164.01 40.7923C164.042 40.3077 164.107 39.8877 164.204 39.5323C164.301 39.1446 164.544 38.7085 164.932 38.2239L177.018 22.6196L176.921 23.2981H167.068C166.291 23.2981 165.644 23.0396 165.126 22.5227C164.609 22.0058 164.35 21.3597 164.35 20.5843C164.35 19.8413 164.609 19.2274 165.126 18.7428C165.644 18.2259 166.291 17.9675 167.068 17.9675H182.018C182.762 17.9675 183.393 18.2421 183.911 18.7913C184.429 19.3405 184.655 20.0351 184.59 20.8751C184.558 21.1981 184.493 21.5212 184.396 21.8443C184.331 22.1673 184.121 22.555 183.765 23.0073L171.873 38.3693V38.0785H182.26Z" fill="#3D3D3D"/>
<path d="M159.722 40.453C159.722 41.293 159.447 42.0038 158.897 42.5853C158.347 43.1345 157.651 43.4091 156.81 43.4091C155.969 43.4091 155.273 43.1345 154.723 42.5853C154.173 42.0038 153.898 41.293 153.898 40.453V20.4389C153.898 19.599 154.173 18.9044 154.723 18.3551C155.273 17.7736 155.969 17.4829 156.81 17.4829C157.651 17.4829 158.347 17.7736 158.897 18.3551C159.447 18.9044 159.722 19.599 159.722 20.4389V40.453ZM156.761 14.3329C155.661 14.3329 154.885 14.1552 154.431 13.7999C153.978 13.4445 153.752 12.8145 153.752 11.9099V10.9892C153.752 10.0523 153.995 9.42228 154.48 9.09921C154.998 8.74384 155.774 8.56615 156.81 8.56615C157.942 8.56615 158.735 8.74384 159.188 9.09921C159.641 9.45459 159.868 10.0846 159.868 10.9892V11.9099C159.868 12.8468 159.625 13.4929 159.14 13.8483C158.654 14.1714 157.862 14.3329 156.761 14.3329Z" fill="#3D3D3D"/>
<path d="M145.02 17.4828C145.861 17.4828 146.557 17.7736 147.107 18.3551C147.657 18.9044 147.932 19.5989 147.932 20.4389V32.7479C147.932 36.1724 146.978 38.8862 145.068 40.8892C143.159 42.8922 140.409 43.8937 136.817 43.8937C133.225 43.8937 130.474 42.8922 128.565 40.8892C126.688 38.8862 125.75 36.1724 125.75 32.7479V20.4389C125.75 19.5989 126.025 18.9044 126.575 18.3551C127.125 17.7736 127.821 17.4828 128.662 17.4828C129.504 17.4828 130.199 17.7736 130.749 18.3551C131.3 18.9044 131.575 19.5989 131.575 20.4389V32.7479C131.575 34.7186 132.012 36.1885 132.885 37.1577C133.759 38.0946 135.069 38.5631 136.817 38.5631C138.597 38.5631 139.923 38.0946 140.797 37.1577C141.671 36.1885 142.108 34.7186 142.108 32.7479V20.4389C142.108 19.5989 142.383 18.9044 142.933 18.3551C143.483 17.7736 144.179 17.4828 145.02 17.4828Z" fill="#3D3D3D"/>
<path d="M121.047 44.766C121.727 44.766 122.358 45.0406 122.94 45.5898C123.523 46.1714 123.814 46.8337 123.814 47.5767C123.814 48.3198 123.474 49.0144 122.795 49.6605C122.148 50.339 121.306 50.9366 120.271 51.4535C119.235 51.9705 118.151 52.3743 117.019 52.665C115.919 52.9558 114.915 53.1012 114.009 53.1012C112.003 53.1012 110.401 52.9074 109.204 52.5197C108.007 52.1643 107.02 51.7443 106.243 51.2597C105.467 50.8074 104.738 50.3874 104.059 49.9997C103.379 49.6444 102.554 49.4667 101.583 49.4667C100.969 49.4667 100.467 49.5636 100.079 49.7574C99.7228 49.9836 99.3183 50.1936 98.8653 50.3874C98.4446 50.6136 97.846 50.7266 97.0693 50.7266C96.2604 50.7266 95.5808 50.4197 95.0307 49.8059C94.4806 49.1921 94.2055 48.5298 94.2055 47.819C94.2055 46.559 94.7718 45.7191 95.9044 45.2991L105.952 41.5676L110.32 42.6338L100.904 46.1229L103.671 44.5237C104.803 44.5237 105.79 44.6852 106.631 45.0083C107.505 45.3637 108.33 45.7514 109.107 46.1714C109.884 46.5914 110.676 46.9629 111.485 47.286C112.327 47.6413 113.281 47.819 114.349 47.819C115.223 47.819 115.951 47.6736 116.533 47.3829C117.148 47.0921 117.682 46.769 118.135 46.4137C118.685 45.9937 119.171 45.606 119.591 45.2506C120.044 44.9275 120.53 44.766 121.047 44.766ZM120.853 26.448C120.853 28.871 120.449 31.1325 119.64 33.2325C118.831 35.3324 117.682 37.19 116.194 38.8054C114.737 40.3884 112.99 41.6322 110.951 42.5368C108.945 43.4414 106.745 43.8937 104.35 43.8937C101.956 43.8937 99.7551 43.4414 97.7489 42.5368C95.7426 41.6322 93.9952 40.3884 92.5067 38.8054C91.0505 37.19 89.918 35.3324 89.109 33.2325C88.3 31.1325 87.8955 28.871 87.8955 26.448C87.8955 24.025 88.3 21.7635 89.109 19.6636C89.918 17.5636 91.0505 15.7221 92.5067 14.1391C93.9952 12.5237 95.7426 11.2638 97.7489 10.3592C99.7551 9.45459 101.956 9.00229 104.35 9.00229C106.745 9.00229 108.945 9.45459 110.951 10.3592C112.99 11.2638 114.737 12.5237 116.194 14.1391C117.682 15.7221 118.831 17.5636 119.64 19.6636C120.449 21.7635 120.853 24.025 120.853 26.448ZM114.543 26.448C114.543 24.2834 114.106 22.3289 113.233 20.5843C112.359 18.8074 111.162 17.4021 109.641 16.3683C108.12 15.3344 106.356 14.8175 104.35 14.8175C102.344 14.8175 100.58 15.3344 99.0594 16.3683C97.5385 17.4021 96.3412 18.7913 95.4676 20.5358C94.6262 22.2804 94.2055 24.2511 94.2055 26.448C94.2055 28.6126 94.6262 30.5833 95.4676 32.3602C96.3412 34.1047 97.5385 35.4939 99.0594 36.5278C100.58 37.5616 102.344 38.0785 104.35 38.0785C106.356 38.0785 108.12 37.5616 109.641 36.5278C111.162 35.4939 112.359 34.1047 113.233 32.3602C114.106 30.5833 114.543 28.6126 114.543 26.448Z" fill="#3D3D3D"/>
<path d="M58.8679 9.99088C72.8545 24.2253 70.702 47.2125 53.7052 57.9221C28.6851 73.6841 -5.44397 52.5234 3.95252 22.4819C11.1965 -0.680791 42.1205 -7.05438 58.8679 9.99088ZM33.0068 5.235C12.1848 6.73174 -0.692268 30.4779 12.6267 47.7391C26.5397 65.7711 59.7683 59.3572 62.9567 35.8505C65.3302 18.3451 50.2269 3.99919 33.0068 5.23738V5.235Z" fill="#E30289"/>
<path d="M68.9325 39.5604C69.2746 39.5272 69.3174 40.1202 69.4076 40.3858C73.7554 53.1472 66.0149 66.3878 55.2238 72.9607C32.0522 87.0694 -3.78752 72.2016 0.325072 42.5823L1.45598 39.0883C2.19011 48.7922 6.30508 57.2437 14.0694 63.1429C34.7749 78.8788 67.8111 66.5539 68.9348 39.5627L68.9325 39.5604Z" fill="#3D3D3D"/>
<path d="M33.0087 5.235C50.2289 3.99681 65.3322 18.3427 62.9587 35.8482C59.7727 59.3572 26.544 65.7687 12.6287 47.7367C-0.690315 30.4779 12.1868 6.73174 33.0087 5.235ZM22.4837 34.814H33.175C33.9211 35.5446 33.6264 36.7922 33.5029 37.7505C33.0895 40.948 31.3504 45.73 31.3741 48.6879C31.3908 50.7895 33.0848 50.7017 34.1064 49.2619L48.4921 29.2255C48.7606 27.7406 48.0288 27.3682 46.6794 27.3113C43.978 27.1974 41.1128 27.558 38.428 27.437C38.1382 27.4252 37.0999 27.188 36.9645 26.9982C36.7436 26.3649 36.8433 25.677 36.9194 25.0271C37.3732 21.239 38.8129 17.114 39.4639 13.3141L39.136 12.4934C37.4231 11.6394 36.8362 12.9417 35.9168 14.066C31.108 19.9462 26.9075 26.6282 22.1606 32.589C21.7021 33.1322 21.7852 34.6147 22.4837 34.8092V34.814Z" fill="#E30289"/>
<path d="M22.4829 34.814C21.7844 34.6171 21.7012 33.137 22.1598 32.5938C26.9067 26.6329 31.1072 19.951 35.9159 14.0707C36.8354 12.9464 37.4222 11.6442 39.1352 12.4981L39.4631 13.3188C38.8121 17.1188 37.3723 21.2461 36.9186 25.0318C36.8401 25.6794 36.7427 26.3672 36.9637 27.0029C37.0991 27.1951 38.135 27.4299 38.4272 27.4418C41.1143 27.5627 43.9796 27.1998 46.6785 27.3161C48.028 27.373 48.7598 27.7454 48.4913 29.2303L34.1055 49.2666C33.0839 50.7088 31.39 50.7942 31.3733 48.6926C31.3496 45.7347 33.0887 40.9527 33.5021 37.7553C33.6256 36.7946 33.9202 35.5493 33.1742 34.8187H22.4829V34.814Z" fill="white"/>
</svg>
