<svg width="1515" height="377" viewBox="0 0 1515 377" fill="none" xmlns="http://www.w3.org/2000/svg">
<g filter="url(#filter0_d_60_105)">
<path d="M679.65 346.054H556.689V321.271L596.723 312.216V40.0808L556.689 30.5489V5.76599H679.65V30.5489L639.616 40.0808V312.216L679.65 321.271V346.054Z" fill="white"/>
<path d="M515.307 255.025C515.307 275.36 510.383 292.676 500.533 306.974C490.683 320.954 476.544 331.757 458.116 339.382C440.005 347.008 418.559 350.82 393.776 350.82C381.067 350.82 368.834 350.185 357.078 348.914C345.64 347.643 335.155 345.896 325.623 343.671C316.091 341.13 307.671 338.111 300.363 334.616V293.629C311.802 298.713 325.94 303.32 342.78 307.45C359.938 311.581 377.572 313.646 395.682 313.646C412.522 313.646 426.661 311.422 438.099 306.974C449.537 302.525 458.116 296.171 463.835 287.91C469.554 279.649 472.414 269.958 472.414 258.838C472.414 247.717 470.031 238.344 465.265 230.719C460.499 223.093 452.238 216.103 440.482 209.748C429.044 203.076 412.998 196.086 392.346 188.778C377.73 183.377 364.862 177.658 353.742 171.621C342.939 165.266 333.884 158.117 326.576 150.174C319.268 142.231 313.708 133.176 309.895 123.008C306.4 112.841 304.653 101.085 304.653 87.7402C304.653 69.6296 309.26 54.2197 318.474 41.5105C327.688 28.4836 340.397 18.4751 356.601 11.4851C373.123 4.49503 392.028 1 413.316 1C432.062 1 449.22 2.74751 464.788 6.24253C480.357 9.73757 494.496 14.3447 507.205 20.0638L493.861 56.7615C482.105 51.6779 469.237 47.3885 455.256 43.8935C441.594 40.3985 427.296 38.651 412.363 38.651C398.065 38.651 386.15 40.7162 376.618 44.8467C367.086 48.9772 359.938 54.8552 355.172 62.4807C350.406 69.7885 348.023 78.3672 348.023 88.2168C348.023 99.6551 350.406 109.187 355.172 116.812C359.938 124.438 367.722 131.269 378.525 137.306C389.328 143.343 403.943 149.856 422.371 156.846C442.388 164.154 459.228 172.097 472.89 180.676C486.871 188.937 497.356 198.946 504.346 210.702C511.653 222.458 515.307 237.232 515.307 255.025Z" fill="white"/>
<path d="M166.995 38.651C148.885 38.651 132.522 41.8283 117.906 48.1829C103.291 54.2197 90.8991 63.275 80.7317 75.3487C70.5644 87.1047 62.78 101.561 57.3786 118.719C51.9772 135.559 49.2765 154.622 49.2765 175.91C49.2765 203.87 53.5658 228.177 62.1445 248.829C71.0409 269.482 84.0679 285.368 101.225 296.489C118.7 307.609 140.465 313.169 166.519 313.169C181.452 313.169 195.591 311.898 208.936 309.357C222.28 306.815 235.307 303.637 248.016 299.825V336.999C235.307 341.765 222.121 345.26 208.459 347.484C195.114 349.708 179.069 350.82 160.323 350.82C125.69 350.82 96.777 343.671 73.5828 329.374C50.3885 315.076 32.9134 294.741 21.1574 268.369C9.71912 241.998 4 211.019 4 175.434C4 149.697 7.49501 126.185 14.4851 104.898C21.7928 83.6097 32.2779 65.1814 45.9403 49.6126C59.9204 34.0439 77.0778 22.129 97.4125 13.8681C117.747 5.28935 141.1 1 167.472 1C184.947 1 201.787 2.74751 217.991 6.24253C234.195 9.73757 248.652 14.6624 261.361 21.017L244.204 57.2382C233.719 52.4722 221.962 48.1828 208.936 44.3701C196.226 40.5573 182.246 38.651 166.995 38.651Z" fill="white"/>
<path d="M692.503 118.224C692.503 113.176 694.433 108.574 698.293 104.416C702.154 100.259 706.756 98.1807 712.101 98.1807C717.446 98.1807 721.9 100.259 725.464 104.416C729.324 108.277 731.254 112.879 731.254 118.224C731.254 123.569 729.324 128.172 725.464 132.032C721.9 135.596 717.446 137.377 712.101 137.377C706.756 137.377 702.154 135.596 698.293 132.032C694.433 128.469 692.503 123.866 692.503 118.224ZM692.503 242.941C692.503 237.596 694.433 232.993 698.293 229.133C702.154 225.273 706.756 223.342 712.101 223.342C717.149 223.342 721.603 225.273 725.464 229.133C729.324 232.993 731.254 237.596 731.254 242.941C731.254 248.286 729.472 252.74 725.909 256.303C722.346 259.866 717.743 261.648 712.101 261.648C706.756 261.648 702.154 259.866 698.293 256.303C694.433 252.74 692.503 248.286 692.503 242.941Z" fill="white"/>
<path d="M1481.43 269.249C1489.15 269.249 1494.98 271.137 1498.91 274.915C1502.85 278.611 1504.82 284.639 1504.82 292.997V335.068H1494.33V293.72C1494.33 288.496 1493.17 284.599 1490.84 282.027C1488.51 279.455 1484.85 278.169 1479.87 278.169C1472.71 278.169 1467.77 280.179 1465.04 284.197C1462.31 288.215 1460.94 294.001 1460.94 301.556V335.068H1450.33V270.454H1458.89L1460.46 279.254H1461.06C1462.51 277.004 1464.28 275.156 1466.37 273.709C1468.53 272.182 1470.91 271.057 1473.48 270.334C1476.05 269.61 1478.7 269.249 1481.43 269.249Z" fill="white"/>
<path d="M1433.52 302.641C1433.52 308.025 1432.8 312.807 1431.35 316.986C1429.98 321.085 1427.97 324.581 1425.32 327.474C1422.75 330.367 1419.58 332.577 1415.8 334.104C1412.1 335.551 1407.96 336.274 1403.38 336.274C1399.12 336.274 1395.18 335.551 1391.57 334.104C1387.95 332.577 1384.82 330.367 1382.17 327.474C1379.51 324.581 1377.42 321.085 1375.9 316.986C1374.45 312.807 1373.73 308.025 1373.73 302.641C1373.73 295.488 1374.93 289.461 1377.34 284.558C1379.75 279.576 1383.21 275.799 1387.71 273.227C1392.21 270.575 1397.56 269.249 1403.74 269.249C1409.61 269.249 1414.75 270.575 1419.17 273.227C1423.67 275.799 1427.17 279.576 1429.66 284.558C1432.23 289.461 1433.52 295.488 1433.52 302.641ZM1384.7 302.641C1384.7 307.704 1385.34 312.124 1386.63 315.901C1387.99 319.598 1390.08 322.451 1392.89 324.46C1395.71 326.469 1399.28 327.474 1403.62 327.474C1407.96 327.474 1411.54 326.469 1414.35 324.46C1417.16 322.451 1419.21 319.598 1420.5 315.901C1421.87 312.124 1422.55 307.704 1422.55 302.641C1422.55 297.497 1421.87 293.117 1420.5 289.501C1419.13 285.884 1417.04 283.112 1414.23 281.183C1411.5 279.174 1407.92 278.169 1403.5 278.169C1396.91 278.169 1392.13 280.339 1389.16 284.679C1386.18 289.019 1384.7 295.006 1384.7 302.641Z" fill="white"/>
<path d="M1356.87 270.455V335.069H1346.26V270.455H1356.87ZM1351.69 246.224C1353.3 246.224 1354.7 246.787 1355.91 247.912C1357.19 248.957 1357.84 250.644 1357.84 252.975C1357.84 255.225 1357.19 256.913 1355.91 258.038C1354.7 259.163 1353.3 259.726 1351.69 259.726C1349.92 259.726 1348.43 259.163 1347.23 258.038C1346.02 256.913 1345.42 255.225 1345.42 252.975C1345.42 250.644 1346.02 248.957 1347.23 247.912C1348.43 246.787 1349.92 246.224 1351.69 246.224Z" fill="white"/>
<path d="M1324.28 327.595C1325.89 327.595 1327.54 327.474 1329.23 327.233C1330.91 326.911 1332.28 326.59 1333.33 326.268V334.345C1332.2 334.908 1330.59 335.35 1328.5 335.671C1326.41 336.073 1324.41 336.274 1322.48 336.274C1319.1 336.274 1315.97 335.711 1313.07 334.586C1310.26 333.381 1307.97 331.332 1306.2 328.438C1304.43 325.545 1303.55 321.487 1303.55 316.263V278.652H1294.39V273.589L1303.67 269.369L1307.89 255.627H1314.16V270.454H1332.84V278.652H1314.16V316.022C1314.16 319.96 1315.08 322.893 1316.93 324.822C1318.86 326.67 1321.31 327.595 1324.28 327.595Z" fill="white"/>
<path d="M1259.61 269.37C1267.48 269.37 1273.31 271.097 1277.08 274.553C1280.86 278.009 1282.75 283.514 1282.75 291.068V335.069H1275.04L1272.99 325.907H1272.5C1270.66 328.237 1268.73 330.206 1266.72 331.814C1264.79 333.341 1262.54 334.466 1259.97 335.189C1257.48 335.912 1254.42 336.274 1250.81 336.274C1246.95 336.274 1243.45 335.591 1240.32 334.225C1237.26 332.859 1234.85 330.769 1233.08 327.956C1231.32 325.063 1230.43 321.447 1230.43 317.107C1230.43 310.678 1232.96 305.735 1238.03 302.279C1243.09 298.743 1250.89 296.814 1261.41 296.493L1272.38 296.131V292.274C1272.38 286.889 1271.22 283.152 1268.89 281.063C1266.56 278.973 1263.26 277.928 1259 277.928C1255.63 277.928 1252.41 278.451 1249.36 279.496C1246.3 280.46 1243.45 281.585 1240.8 282.871L1237.55 274.915C1240.36 273.388 1243.69 272.102 1247.55 271.057C1251.41 269.932 1255.43 269.37 1259.61 269.37ZM1262.74 303.846C1254.7 304.168 1249.12 305.454 1245.98 307.704C1242.93 309.954 1241.4 313.129 1241.4 317.227C1241.4 320.844 1242.49 323.496 1244.66 325.184C1246.91 326.871 1249.76 327.715 1253.22 327.715C1258.68 327.715 1263.22 326.228 1266.84 323.255C1270.45 320.201 1272.26 315.54 1272.26 309.271V303.485L1262.74 303.846Z" fill="white"/>
<path d="M1183.87 269.249C1188.13 269.249 1191.95 270.052 1195.32 271.66C1198.78 273.267 1201.71 275.718 1204.12 279.013H1204.73L1206.17 270.454H1214.61V336.153C1214.61 342.261 1213.57 347.364 1211.48 351.463C1209.39 355.642 1206.21 358.776 1201.96 360.866C1197.7 362.955 1192.27 364 1185.68 364C1181.02 364 1176.72 363.638 1172.78 362.915C1168.92 362.272 1165.47 361.268 1162.42 359.901V350.137C1164.5 351.182 1166.8 352.066 1169.29 352.789C1171.78 353.593 1174.47 354.195 1177.36 354.597C1180.26 354.999 1183.23 355.2 1186.28 355.2C1191.83 355.2 1196.17 353.552 1199.3 350.257C1202.52 347.043 1204.12 342.623 1204.12 336.997V334.466C1204.12 333.501 1204.17 332.135 1204.25 330.367C1204.33 328.519 1204.41 327.233 1204.49 326.509H1204C1201.75 329.804 1198.94 332.256 1195.57 333.863C1192.27 335.47 1188.41 336.274 1183.99 336.274C1175.64 336.274 1169.09 333.34 1164.34 327.474C1159.68 321.607 1157.35 313.41 1157.35 302.882C1157.35 295.97 1158.4 290.023 1160.49 285.041C1162.66 279.978 1165.71 276.08 1169.65 273.347C1173.59 270.615 1178.33 269.249 1183.87 269.249ZM1185.32 278.169C1181.7 278.169 1178.61 279.134 1176.04 281.063C1173.55 282.991 1171.62 285.804 1170.25 289.501C1168.96 293.198 1168.32 297.698 1168.32 303.002C1168.32 310.959 1169.77 317.066 1172.66 321.326C1175.64 325.505 1179.93 327.594 1185.56 327.594C1188.86 327.594 1191.67 327.192 1194 326.389C1196.33 325.505 1198.26 324.179 1199.79 322.411C1201.31 320.562 1202.44 318.232 1203.16 315.419C1203.88 312.606 1204.25 309.271 1204.25 305.413V302.882C1204.25 297.015 1203.56 292.274 1202.2 288.657C1200.91 285.041 1198.86 282.389 1196.05 280.701C1193.24 279.013 1189.66 278.169 1185.32 278.169Z" fill="white"/>
<path d="M1140.5 270.455V335.069H1129.89V270.455H1140.5ZM1135.31 246.224C1136.92 246.224 1138.33 246.787 1139.53 247.912C1140.82 248.957 1141.46 250.644 1141.46 252.975C1141.46 255.225 1140.82 256.913 1139.53 258.038C1138.33 259.163 1136.92 259.726 1135.31 259.726C1133.55 259.726 1132.06 259.163 1130.85 258.038C1129.65 256.913 1129.05 255.225 1129.05 252.975C1129.05 250.644 1129.65 248.957 1130.85 247.912C1132.06 246.787 1133.55 246.224 1135.31 246.224Z" fill="white"/>
<path d="M1107.91 327.595C1109.52 327.595 1111.17 327.474 1112.85 327.233C1114.54 326.911 1115.91 326.59 1116.95 326.268V334.345C1115.83 334.908 1114.22 335.35 1112.13 335.671C1110.04 336.073 1108.03 336.274 1106.1 336.274C1102.73 336.274 1099.59 335.711 1096.7 334.586C1093.89 333.381 1091.6 331.332 1089.83 328.438C1088.06 325.545 1087.18 321.487 1087.18 316.263V278.652H1078.01V273.589L1087.3 269.369L1091.52 255.627H1097.78V270.454H1116.47V278.652H1097.78V316.022C1097.78 319.96 1098.71 322.893 1100.56 324.822C1102.49 326.67 1104.94 327.595 1107.91 327.595Z" fill="white"/>
<path d="M1070.72 317.227C1070.72 321.406 1069.67 324.902 1067.58 327.715C1065.49 330.528 1062.52 332.657 1058.66 334.104C1054.81 335.551 1050.23 336.274 1044.92 336.274C1040.42 336.274 1036.52 335.912 1033.23 335.189C1030.01 334.466 1027.16 333.461 1024.67 332.175V322.531C1027.24 323.817 1030.33 325.023 1033.95 326.148C1037.65 327.192 1041.38 327.715 1045.16 327.715C1050.55 327.715 1054.44 326.871 1056.86 325.183C1059.27 323.415 1060.47 321.085 1060.47 318.192C1060.47 316.584 1060.03 315.138 1059.15 313.852C1058.26 312.566 1056.65 311.28 1054.32 309.994C1052.07 308.708 1048.82 307.262 1044.56 305.654C1040.38 304.047 1036.8 302.44 1033.83 300.833C1030.86 299.225 1028.57 297.296 1026.96 295.046C1025.35 292.796 1024.55 289.903 1024.55 286.367C1024.55 280.902 1026.76 276.683 1031.18 273.709C1035.68 270.736 1041.55 269.249 1048.78 269.249C1052.72 269.249 1056.37 269.651 1059.75 270.454C1063.2 271.178 1066.42 272.222 1069.39 273.589L1065.78 282.027C1064.01 281.223 1062.12 280.54 1060.11 279.978C1058.18 279.335 1056.21 278.853 1054.2 278.531C1052.19 278.129 1050.14 277.928 1048.06 277.928C1043.72 277.928 1040.38 278.652 1038.05 280.098C1035.8 281.464 1034.67 283.353 1034.67 285.764C1034.67 287.532 1035.2 289.059 1036.24 290.345C1037.29 291.55 1039.01 292.756 1041.43 293.961C1043.92 295.086 1047.21 296.453 1051.31 298.06C1055.41 299.587 1058.9 301.154 1061.8 302.761C1064.69 304.369 1066.9 306.338 1068.43 308.668C1069.95 310.918 1070.72 313.771 1070.72 317.227Z" fill="white"/>
<path d="M985.556 269.249C991.102 269.249 995.843 270.454 999.781 272.865C1003.8 275.276 1006.85 278.692 1008.94 283.112C1011.11 287.452 1012.2 292.555 1012.2 298.422V304.811H967.956C968.117 312.124 969.965 317.709 973.502 321.567C977.118 325.344 982.141 327.233 988.57 327.233C992.669 327.233 996.285 326.871 999.419 326.148C1002.63 325.344 1005.93 324.219 1009.3 322.772V332.055C1006.01 333.501 1002.75 334.546 999.54 335.189C996.325 335.912 992.508 336.274 988.088 336.274C981.98 336.274 976.555 335.028 971.814 332.537C967.153 330.046 963.496 326.349 960.844 321.446C958.272 316.464 956.986 310.396 956.986 303.243C956.986 296.171 958.152 290.104 960.482 285.041C962.893 279.978 966.228 276.08 970.488 273.347C974.828 270.615 979.85 269.249 985.556 269.249ZM985.436 277.928C980.373 277.928 976.354 279.576 973.381 282.871C970.488 286.085 968.76 290.586 968.197 296.372H1001.11C1001.11 292.675 1000.54 289.461 999.419 286.728C998.294 283.996 996.566 281.866 994.236 280.339C991.986 278.732 989.052 277.928 985.436 277.928Z" fill="white"/>
<path d="M913.612 335.068L889.141 270.454H900.472L914.215 308.548C914.858 310.316 915.541 312.285 916.264 314.455C916.987 316.624 917.63 318.714 918.193 320.723C918.755 322.652 919.157 324.299 919.398 325.666H919.881C920.202 324.299 920.644 322.612 921.207 320.603C921.849 318.593 922.533 316.504 923.256 314.334C924.06 312.164 924.743 310.235 925.305 308.548L939.048 270.454H950.379L925.787 335.068H913.612Z" fill="white"/>
<path d="M855.97 269.249C863.685 269.249 869.512 271.137 873.45 274.915C877.388 278.611 879.357 284.639 879.357 292.997V335.068H868.869V293.72C868.869 288.496 867.704 284.599 865.373 282.027C863.042 279.455 859.386 278.169 854.403 278.169C847.25 278.169 842.308 280.179 839.576 284.197C836.843 288.215 835.477 294.001 835.477 301.556V335.068H824.869V270.454H833.428L834.995 279.254H835.597C837.044 277.004 838.812 275.156 840.902 273.709C843.071 272.182 845.442 271.057 848.014 270.334C850.586 269.61 853.238 269.249 855.97 269.249Z" fill="white"/>
<path d="M809.696 335.068H778.594V328.8L788.72 326.509V257.676L778.594 255.265V248.997H809.696V255.265L799.57 257.676V326.509L809.696 328.8V335.068Z" fill="white"/>
<path d="M1339.92 193.842C1339.92 198.021 1338.88 201.517 1336.79 204.33C1334.7 207.143 1331.72 209.272 1327.87 210.719C1324.01 212.165 1319.43 212.889 1314.12 212.889C1309.62 212.889 1305.73 212.527 1302.43 211.804C1299.22 211.08 1296.36 210.076 1293.87 208.79V199.146C1296.44 200.432 1299.54 201.637 1303.15 202.763C1306.85 203.807 1310.59 204.33 1314.37 204.33C1319.75 204.33 1323.65 203.486 1326.06 201.798C1328.47 200.03 1329.68 197.7 1329.68 194.806C1329.68 193.199 1329.23 191.753 1328.35 190.467C1327.46 189.181 1325.86 187.895 1323.53 186.609C1321.28 185.323 1318.02 183.877 1313.76 182.269C1309.58 180.662 1306.01 179.055 1303.03 177.447C1300.06 175.84 1297.77 173.911 1296.16 171.661C1294.56 169.411 1293.75 166.518 1293.75 162.982C1293.75 157.517 1295.96 153.297 1300.38 150.324C1304.88 147.35 1310.75 145.864 1317.98 145.864C1321.92 145.864 1325.58 146.265 1328.95 147.069C1332.41 147.792 1335.62 148.837 1338.6 150.203L1334.98 158.642C1333.21 157.838 1331.32 157.155 1329.31 156.592C1327.38 155.95 1325.42 155.467 1323.41 155.146C1321.4 154.744 1319.35 154.543 1317.26 154.543C1312.92 154.543 1309.58 155.266 1307.25 156.713C1305 158.079 1303.88 159.968 1303.88 162.379C1303.88 164.147 1304.4 165.674 1305.44 166.96C1306.49 168.165 1308.22 169.371 1310.63 170.576C1313.12 171.701 1316.41 173.067 1320.51 174.675C1324.61 176.202 1328.11 177.769 1331 179.376C1333.89 180.983 1336.1 182.952 1337.63 185.283C1339.16 187.533 1339.92 190.386 1339.92 193.842Z" fill="white"/>
<path d="M1246.59 212.889C1238.55 212.889 1232.12 210.116 1227.3 204.571C1222.48 198.945 1220.07 190.587 1220.07 179.497C1220.07 168.406 1222.48 160.048 1227.3 154.423C1232.2 148.717 1238.67 145.864 1246.71 145.864C1250.09 145.864 1253.02 146.306 1255.51 147.19C1258 147.993 1260.17 149.119 1262.02 150.565C1263.87 152.012 1265.44 153.619 1266.72 155.387H1267.44C1267.36 154.342 1267.2 152.815 1266.96 150.806C1266.8 148.717 1266.72 147.069 1266.72 145.864V120.066H1277.33V211.683H1268.77L1267.2 203.004H1266.72C1265.44 204.852 1263.87 206.54 1262.02 208.067C1260.17 209.513 1257.96 210.679 1255.39 211.563C1252.9 212.447 1249.96 212.889 1246.59 212.889ZM1248.28 204.089C1255.11 204.089 1259.89 202.24 1262.62 198.543C1265.44 194.766 1266.84 189.1 1266.84 181.546V179.617C1266.84 171.581 1265.52 165.433 1262.86 161.173C1260.21 156.834 1255.31 154.664 1248.16 154.664C1242.45 154.664 1238.15 156.954 1235.26 161.535C1232.45 166.035 1231.04 172.103 1231.04 179.738C1231.04 187.453 1232.45 193.44 1235.26 197.7C1238.15 201.959 1242.49 204.089 1248.28 204.089Z" fill="white"/>
<path d="M1206.38 145.864C1207.58 145.864 1208.87 145.944 1210.24 146.105C1211.68 146.185 1212.93 146.346 1213.97 146.587L1212.65 156.351C1211.6 156.11 1210.44 155.909 1209.15 155.749C1207.95 155.588 1206.78 155.508 1205.66 155.508C1203.16 155.508 1200.79 156.03 1198.54 157.075C1196.29 158.119 1194.28 159.606 1192.52 161.535C1190.75 163.383 1189.34 165.634 1188.3 168.286C1187.33 170.938 1186.85 173.911 1186.85 177.206V211.683H1176.24V147.069H1184.92L1186.13 158.883H1186.61C1187.97 156.472 1189.62 154.302 1191.55 152.373C1193.48 150.364 1195.69 148.797 1198.18 147.672C1200.67 146.466 1203.4 145.864 1206.38 145.864Z" fill="white"/>
<path d="M1133.14 145.984C1141.02 145.984 1146.84 147.712 1150.62 151.168C1154.4 154.623 1156.28 160.129 1156.28 167.683V211.683H1148.57L1146.52 202.521H1146.04C1144.19 204.852 1142.26 206.821 1140.25 208.428C1138.32 209.955 1136.07 211.08 1133.5 211.804C1131.01 212.527 1127.96 212.889 1124.34 212.889C1120.48 212.889 1116.99 212.206 1113.85 210.839C1110.8 209.473 1108.39 207.384 1106.62 204.571C1104.85 201.678 1103.97 198.061 1103.97 193.721C1103.97 187.292 1106.5 182.35 1111.56 178.894C1116.62 175.358 1124.42 173.429 1134.95 173.108L1145.92 172.746V168.888C1145.92 163.504 1144.75 159.767 1142.42 157.677C1140.09 155.588 1136.8 154.543 1132.54 154.543C1129.16 154.543 1125.95 155.065 1122.89 156.11C1119.84 157.075 1116.99 158.2 1114.33 159.486L1111.08 151.529C1113.89 150.002 1117.23 148.717 1121.08 147.672C1124.94 146.547 1128.96 145.984 1133.14 145.984ZM1136.27 180.461C1128.24 180.782 1122.65 182.068 1119.52 184.319C1116.46 186.569 1114.94 189.743 1114.94 193.842C1114.94 197.458 1116.02 200.11 1118.19 201.798C1120.44 203.486 1123.29 204.33 1126.75 204.33C1132.22 204.33 1136.76 202.843 1140.37 199.869C1143.99 196.816 1145.8 192.154 1145.8 185.886V180.099L1136.27 180.461Z" fill="white"/>
<path d="M1057.41 212.889C1049.37 212.889 1042.94 210.116 1038.12 204.571C1033.3 198.945 1030.89 190.587 1030.89 179.497C1030.89 168.406 1033.3 160.048 1038.12 154.423C1043.02 148.717 1049.49 145.864 1057.53 145.864C1060.9 145.864 1063.84 146.306 1066.33 147.19C1068.82 147.993 1070.99 149.119 1072.84 150.565C1074.69 152.012 1076.25 153.619 1077.54 155.387H1078.26C1078.18 154.342 1078.02 152.815 1077.78 150.806C1077.62 148.717 1077.54 147.069 1077.54 145.864V120.066H1088.15V211.683H1079.59L1078.02 203.004H1077.54C1076.25 204.852 1074.69 206.54 1072.84 208.067C1070.99 209.513 1068.78 210.679 1066.21 211.563C1063.72 212.447 1060.78 212.889 1057.41 212.889ZM1059.09 204.089C1065.93 204.089 1070.71 202.24 1073.44 198.543C1076.25 194.766 1077.66 189.1 1077.66 181.546V179.617C1077.66 171.581 1076.33 165.433 1073.68 161.173C1071.03 156.834 1066.13 154.664 1058.97 154.664C1053.27 154.664 1048.97 156.954 1046.07 161.535C1043.26 166.035 1041.86 172.103 1041.86 179.738C1041.86 187.453 1043.26 193.44 1046.07 197.7C1048.97 201.959 1053.31 204.089 1059.09 204.089Z" fill="white"/>
<path d="M991.086 145.864C998.801 145.864 1004.63 147.752 1008.56 151.529C1012.5 155.226 1014.47 161.254 1014.47 169.612V211.683H1003.98V170.335C1003.98 165.111 1002.82 161.214 1000.49 158.642C998.158 156.07 994.501 154.784 989.518 154.784C982.366 154.784 977.423 156.793 974.691 160.812C971.958 164.83 970.592 170.616 970.592 178.171V211.683H959.984V147.069H968.543L970.11 155.869H970.713C972.159 153.619 973.927 151.771 976.017 150.324C978.187 148.797 980.558 147.672 983.129 146.949C985.701 146.225 988.353 145.864 991.086 145.864Z" fill="white"/>
<path d="M916.882 145.984C924.758 145.984 930.584 147.712 934.361 151.168C938.139 154.623 940.027 160.129 940.027 167.683V211.683H932.312L930.263 202.521H929.781C927.932 204.852 926.003 206.821 923.994 208.428C922.065 209.955 919.815 211.08 917.243 211.804C914.752 212.527 911.698 212.889 908.082 212.889C904.224 212.889 900.728 212.206 897.594 210.839C894.54 209.473 892.129 207.384 890.361 204.571C888.593 201.678 887.709 198.061 887.709 193.721C887.709 187.292 890.241 182.35 895.304 178.894C900.367 175.358 908.162 173.429 918.69 173.108L929.66 172.746V168.888C929.66 163.504 928.495 159.767 926.164 157.677C923.833 155.588 920.538 154.543 916.279 154.543C912.904 154.543 909.689 155.065 906.635 156.11C903.581 157.075 900.728 158.2 898.076 159.486L894.821 151.529C897.634 150.002 900.969 148.717 904.827 147.672C908.684 146.547 912.703 145.984 916.882 145.984ZM920.016 180.461C911.979 180.782 906.394 182.068 903.26 184.319C900.206 186.569 898.679 189.743 898.679 193.842C898.679 197.458 899.764 200.11 901.934 201.798C904.184 203.486 907.037 204.33 910.493 204.33C915.958 204.33 920.498 202.843 924.115 199.869C927.731 196.816 929.539 192.154 929.539 185.886V180.099L920.016 180.461Z" fill="white"/>
<path d="M870.431 204.209C872.039 204.209 873.686 204.089 875.374 203.847C877.061 203.526 878.428 203.205 879.472 202.883V210.96C878.347 211.522 876.74 211.964 874.65 212.286C872.561 212.688 870.552 212.889 868.623 212.889C865.248 212.889 862.113 212.326 859.22 211.201C856.407 209.995 854.117 207.946 852.349 205.053C850.581 202.16 849.697 198.101 849.697 192.878V155.266H840.535V150.203L849.817 145.984L854.037 132.242H860.305V147.069H878.99V155.266H860.305V192.636C860.305 196.574 861.229 199.508 863.078 201.437C865.007 203.285 867.458 204.209 870.431 204.209Z" fill="white"/>
<path d="M832.962 188.659C832.962 193.802 831.716 198.182 829.225 201.798C826.733 205.335 823.157 208.067 818.496 209.996C813.915 211.925 808.49 212.889 802.222 212.889C799.007 212.889 795.913 212.728 792.94 212.407C790.046 212.085 787.394 211.643 784.983 211.081C782.572 210.438 780.443 209.674 778.594 208.79V198.423C781.487 199.709 785.064 200.874 789.323 201.919C793.663 202.964 798.123 203.486 802.704 203.486C806.963 203.486 810.54 202.924 813.433 201.798C816.326 200.673 818.496 199.066 819.942 196.977C821.389 194.887 822.112 192.436 822.112 189.623C822.112 186.81 821.51 184.439 820.304 182.511C819.099 180.582 817.009 178.814 814.036 177.207C811.142 175.519 807.084 173.751 801.86 171.902C798.163 170.536 794.908 169.09 792.096 167.563C789.363 165.955 787.073 164.147 785.224 162.138C783.376 160.129 781.97 157.838 781.005 155.267C780.121 152.695 779.679 149.721 779.679 146.346C779.679 141.765 780.844 137.868 783.175 134.653C785.506 131.358 788.72 128.826 792.819 127.058C796.998 125.29 801.78 124.406 807.164 124.406C811.906 124.406 816.246 124.848 820.183 125.732C824.121 126.616 827.698 127.782 830.912 129.228L827.537 138.51C824.563 137.225 821.309 136.14 817.773 135.256C814.317 134.372 810.7 133.93 806.923 133.93C803.307 133.93 800.293 134.452 797.882 135.497C795.471 136.541 793.663 138.028 792.457 139.957C791.252 141.805 790.649 143.975 790.649 146.467C790.649 149.36 791.252 151.771 792.457 153.7C793.663 155.628 795.632 157.356 798.364 158.883C801.097 160.41 804.793 162.058 809.455 163.826C814.518 165.674 818.777 167.683 822.233 169.853C825.769 171.943 828.421 174.474 830.189 177.448C832.037 180.421 832.962 184.158 832.962 188.659Z" fill="white"/>
<path d="M1243 84.2889C1244.6 84.2889 1246.25 84.1683 1247.94 83.9272C1249.63 83.6057 1250.99 83.2843 1252.04 82.9628V91.0395C1250.91 91.6021 1249.31 92.0441 1247.22 92.3656C1245.13 92.7674 1243.12 92.9683 1241.19 92.9683C1237.81 92.9683 1234.68 92.4058 1231.79 91.2807C1228.97 90.0752 1226.68 88.0259 1224.91 85.1327C1223.15 82.2395 1222.26 78.181 1222.26 72.9573V35.3461H1213.1V30.283L1222.38 26.0638L1226.6 12.3213H1232.87V27.1488H1251.56V35.3461H1232.87V72.7162C1232.87 76.6541 1233.8 79.5874 1235.64 81.5162C1237.57 83.3646 1240.02 84.2889 1243 84.2889Z" fill="white"/>
<path d="M1205.81 73.9217C1205.81 78.1008 1204.76 81.5966 1202.67 84.4095C1200.58 87.2223 1197.61 89.352 1193.75 90.7985C1189.89 92.2451 1185.31 92.9684 1180.01 92.9684C1175.51 92.9684 1171.61 92.6067 1168.32 91.8834C1165.1 91.1602 1162.25 90.1556 1159.76 88.8697V79.2259C1162.33 80.5117 1165.42 81.7172 1169.04 82.8423C1172.74 83.8871 1176.47 84.4095 1180.25 84.4095C1185.63 84.4095 1189.53 83.5656 1191.94 81.8779C1194.35 80.1099 1195.56 77.7793 1195.56 74.8861C1195.56 73.2788 1195.12 71.8322 1194.23 70.5464C1193.35 69.2605 1191.74 67.9747 1189.41 66.6888C1187.16 65.403 1183.91 63.9564 1179.65 62.3491C1175.47 60.7417 1171.89 59.1344 1168.92 57.5271C1165.94 55.9198 1163.65 53.991 1162.05 51.7408C1160.44 49.4905 1159.64 46.5974 1159.64 43.0613C1159.64 37.5964 1161.85 33.3772 1166.27 30.4036C1170.77 27.4301 1176.63 25.9434 1183.87 25.9434C1187.8 25.9434 1191.46 26.3452 1194.84 27.1489C1198.29 27.8721 1201.51 28.9169 1204.48 30.2831L1200.86 38.7215C1199.1 37.9179 1197.21 37.2348 1195.2 36.6722C1193.27 36.0293 1191.3 35.5471 1189.29 35.2256C1187.28 34.8238 1185.23 34.6229 1183.14 34.6229C1178.8 34.6229 1175.47 35.3461 1173.14 36.7927C1170.89 38.1589 1169.76 40.0475 1169.76 42.4585C1169.76 44.2266 1170.28 45.7535 1171.33 47.0394C1172.37 48.2449 1174.1 49.4503 1176.51 50.6558C1179 51.7809 1182.3 53.1472 1186.4 54.7545C1190.5 56.2814 1193.99 57.8486 1196.89 59.4559C1199.78 61.0632 1201.99 63.0322 1203.52 65.3628C1205.04 67.613 1205.81 70.466 1205.81 73.9217Z" fill="white"/>
<path d="M1120.63 26.064C1128.51 26.064 1134.34 27.7918 1138.11 31.2476C1141.89 34.7033 1143.78 40.2084 1143.78 47.7627V91.763H1136.06L1134.01 82.6013H1133.53C1131.68 84.9319 1129.75 86.9008 1127.75 88.5082C1125.82 90.0351 1123.57 91.1602 1120.99 91.8835C1118.5 92.6068 1115.45 92.9685 1111.83 92.9685C1107.98 92.9685 1104.48 92.2854 1101.34 90.9191C1098.29 89.5529 1095.88 87.4634 1094.11 84.6506C1092.34 81.7574 1091.46 78.141 1091.46 73.8012C1091.46 67.372 1093.99 62.4295 1099.05 58.9738C1104.12 55.4377 1111.91 53.5089 1122.44 53.1874L1133.41 52.8258V48.9682C1133.41 43.5837 1132.25 39.8467 1129.92 37.7572C1127.58 35.6677 1124.29 34.6229 1120.03 34.6229C1116.65 34.6229 1113.44 35.1453 1110.39 36.1901C1107.33 37.1545 1104.48 38.2796 1101.83 39.5654L1098.57 31.6092C1101.39 30.0823 1104.72 28.7964 1108.58 27.7516C1112.44 26.6265 1116.45 26.064 1120.63 26.064ZM1123.77 60.5409C1115.73 60.8623 1110.15 62.1482 1107.01 64.3984C1103.96 66.6487 1102.43 69.8232 1102.43 73.9218C1102.43 77.5383 1103.51 80.1903 1105.68 81.878C1107.93 83.5657 1110.79 84.4095 1114.24 84.4095C1119.71 84.4095 1124.25 82.9228 1127.87 79.9492C1131.48 76.8953 1133.29 72.2341 1133.29 65.9656V60.1793L1123.77 60.5409Z" fill="white"/>
<path d="M1078.85 25.9434C1080.06 25.9434 1081.35 26.0237 1082.71 26.1845C1084.16 26.2648 1085.4 26.4256 1086.45 26.6667L1085.12 36.4311C1084.08 36.19 1082.91 35.9891 1081.63 35.8283C1080.42 35.6676 1079.26 35.5872 1078.13 35.5872C1075.64 35.5872 1073.27 36.1096 1071.02 37.1544C1068.77 38.1991 1066.76 39.6859 1064.99 41.6147C1063.22 43.4631 1061.82 45.7133 1060.77 48.3654C1059.81 51.0175 1059.33 53.991 1059.33 57.286V91.7629H1048.72V27.1489H1057.4L1058.6 38.9626H1059.08C1060.45 36.5516 1062.1 34.3818 1064.03 32.453C1065.96 30.4438 1068.17 28.8767 1070.66 27.7516C1073.15 26.5461 1075.88 25.9434 1078.85 25.9434Z" fill="white"/>
<path d="M1026.74 84.2889C1028.35 84.2889 1029.99 84.1683 1031.68 83.9272C1033.37 83.6057 1034.74 83.2843 1035.78 82.9628V91.0395C1034.65 91.6021 1033.05 92.0441 1030.96 92.3656C1028.87 92.7674 1026.86 92.9683 1024.93 92.9683C1021.56 92.9683 1018.42 92.4058 1015.53 91.2807C1012.72 90.0752 1010.42 88.0259 1008.66 85.1327C1006.89 82.2395 1006 78.181 1006 72.9573V35.3461H996.843V30.283L1006.13 26.0638L1010.34 12.3213H1016.61V27.1488H1035.3V35.3461H1016.61V72.7162C1016.61 76.6541 1017.54 79.5874 1019.39 81.5162C1021.31 83.3646 1023.77 84.2889 1026.74 84.2889Z" fill="white"/>
<path d="M961.744 25.9434C969.459 25.9434 975.286 27.8319 979.224 31.6091C983.162 35.306 985.131 41.3334 985.131 49.6914V91.7629H974.643V50.4147C974.643 45.191 973.478 41.2932 971.147 38.7215C968.816 36.1498 965.16 34.864 960.177 34.864C953.024 34.864 948.082 36.8731 945.35 40.8914C942.617 44.9097 941.251 50.696 941.251 58.2504V91.7629H930.643V27.1489H939.202L940.769 35.9489H941.371C942.818 33.6986 944.586 31.8502 946.676 30.4036C948.845 28.8767 951.216 27.7516 953.788 27.0283C956.36 26.305 959.012 25.9434 961.744 25.9434Z" fill="white"/>
<path d="M913.83 59.3353C913.83 64.7199 913.106 69.5016 911.66 73.6806C910.294 77.7793 908.284 81.2752 905.632 84.1683C903.061 87.0615 899.886 89.2716 896.109 90.7985C892.412 92.2451 888.273 92.9684 883.693 92.9684C879.433 92.9684 875.495 92.2451 871.879 90.7985C868.262 89.2716 865.128 87.0615 862.476 84.1683C859.824 81.2752 857.734 77.7793 856.207 73.6806C854.761 69.5016 854.038 64.7199 854.038 59.3353C854.038 52.1828 855.243 46.1554 857.654 41.2531C860.065 36.2704 863.521 32.4932 868.021 29.9215C872.522 27.2694 877.866 25.9434 884.054 25.9434C889.921 25.9434 895.064 27.2694 899.484 29.9215C903.985 32.4932 907.481 36.2704 909.972 41.2531C912.544 46.1554 913.83 52.1828 913.83 59.3353ZM865.008 59.3353C865.008 64.3984 865.65 68.8185 866.936 72.5957C868.303 76.2925 870.392 79.1455 873.205 81.1546C876.018 83.1638 879.594 84.1683 883.934 84.1683C888.273 84.1683 891.85 83.1638 894.663 81.1546C897.475 79.1455 899.525 76.2925 900.81 72.5957C902.177 68.8185 902.86 64.3984 902.86 59.3353C902.86 54.1919 902.177 49.812 900.81 46.1955C899.444 42.5791 897.355 39.8065 894.542 37.8777C891.81 35.8685 888.233 34.864 883.813 34.864C877.223 34.864 872.441 37.0338 869.468 41.3736C866.494 45.7133 865.008 51.7006 865.008 59.3353Z" fill="white"/>
<path d="M819.822 14.0092C815.241 14.0092 811.102 14.8128 807.405 16.4202C803.709 17.9471 800.574 20.2375 798.003 23.2914C795.431 26.265 793.462 29.9216 792.096 34.2613C790.729 38.5207 790.046 43.3427 790.046 48.7272C790.046 55.7994 791.131 61.9474 793.301 67.1711C795.551 72.3949 798.846 76.4132 803.186 79.226C807.606 82.0388 813.111 83.4452 819.701 83.4452C823.479 83.4452 827.055 83.1237 830.43 82.4808C833.806 81.8379 837.1 81.0342 840.315 80.0698V89.4726C837.1 90.6781 833.765 91.5621 830.31 92.1247C826.934 92.6873 822.876 92.9686 818.134 92.9686C809.374 92.9686 802.061 91.1603 796.194 87.5438C790.328 83.9274 785.908 78.784 782.934 72.1136C780.041 65.4433 778.594 57.6076 778.594 48.6067C778.594 42.097 779.478 36.1499 781.246 30.7654C783.095 25.3809 785.747 20.7197 789.203 16.7818C792.739 12.8439 797.078 9.83018 802.222 7.74067C807.365 5.5708 813.272 4.48584 819.942 4.48584C824.363 4.48584 828.622 4.92785 832.721 5.81187C836.819 6.6959 840.476 7.94158 843.69 9.54889L839.351 18.7106C836.699 17.5051 833.725 16.4202 830.43 15.4558C827.216 14.4914 823.679 14.0092 819.822 14.0092Z" fill="white"/>
</g>
<defs>
<filter id="filter0_d_60_105" x="0.2" y="0.2" width="1514.42" height="376.6" filterUnits="userSpaceOnUse" color-interpolation-filters="sRGB">
<feFlood flood-opacity="0" result="BackgroundImageFix"/>
<feColorMatrix in="SourceAlpha" type="matrix" values="0 0 0 0 0 0 0 0 0 0 0 0 0 0 0 0 0 0 127 0" result="hardAlpha"/>
<feOffset dx="3" dy="6"/>
<feGaussianBlur stdDeviation="3.4"/>
<feComposite in2="hardAlpha" operator="out"/>
<feColorMatrix type="matrix" values="0 0 0 0 0 0 0 0 0 0 0 0 0 0 0 0 0 0 1 0"/>
<feBlend mode="normal" in2="BackgroundImageFix" result="effect1_dropShadow_60_105"/>
<feBlend mode="normal" in="SourceGraphic" in2="effect1_dropShadow_60_105" result="shape"/>
</filter>
</defs>
</svg>
